<?xml version="1.0" encoding="UTF-8" standalone="no"?>
<!-- Created with Inkscape (http://www.inkscape.org/) -->

<svg
   width="210mm"
   height="297mm"
   viewBox="0 0 210 297"
   version="1.1"
   id="svg1"
   xml:space="preserve"
   inkscape:version="1.3.2 (091e20e, 2023-11-25, custom)"
   sodipodi:docname="Sun.svg"
   xmlns:inkscape="http://www.inkscape.org/namespaces/inkscape"
   xmlns:sodipodi="http://sodipodi.sourceforge.net/DTD/sodipodi-0.dtd"
   xmlns="http://www.w3.org/2000/svg"
   xmlns:svg="http://www.w3.org/2000/svg"><sodipodi:namedview
     id="namedview1"
     pagecolor="#ffffff"
     bordercolor="#000000"
     borderopacity="0.25"
     inkscape:showpageshadow="2"
     inkscape:pageopacity="0.0"
     inkscape:pagecheckerboard="0"
     inkscape:deskcolor="#d1d1d1"
     inkscape:document-units="mm"
     inkscape:zoom="0.76702441"
     inkscape:cx="396.98867"
     inkscape:cy="561.25984"
     inkscape:window-width="1920"
     inkscape:window-height="1057"
     inkscape:window-x="-8"
     inkscape:window-y="-8"
     inkscape:window-maximized="1"
     inkscape:current-layer="layer1" /><defs
     id="defs1"><clipPath
       clipPathUnits="userSpaceOnUse"
       id="clipPath16"><rect
         style="fill:#d40000;fill-opacity:1;stroke-width:0.999999"
         id="rect17"
         width="444.5751"
         height="740.52405"
         x="173.39735"
         y="183.82727" /></clipPath><clipPath
       clipPathUnits="userSpaceOnUse"
       id="clipPath17"><rect
         style="fill:#d40000;fill-opacity:1;stroke-width:0.999999"
         id="rect18"
         width="444.5751"
         height="740.52405"
         x="173.39735"
         y="183.82727" /></clipPath><clipPath
       clipPathUnits="userSpaceOnUse"
       id="clipPath18"><rect
         style="fill:#d40000;fill-opacity:1;stroke-width:0.999999"
         id="rect19"
         width="444.5751"
         height="740.52405"
         x="173.39735"
         y="183.82727" /></clipPath><clipPath
       clipPathUnits="userSpaceOnUse"
       id="clipPath19"><rect
         style="fill:#d40000;fill-opacity:1;stroke-width:0.999999"
         id="rect20"
         width="444.5751"
         height="740.52405"
         x="173.39735"
         y="183.82727" /></clipPath><clipPath
       clipPathUnits="userSpaceOnUse"
       id="clipPath20"><rect
         style="fill:#d40000;fill-opacity:1;stroke-width:0.999999"
         id="rect21"
         width="444.5751"
         height="740.52405"
         x="173.39735"
         y="183.82727" /></clipPath><clipPath
       clipPathUnits="userSpaceOnUse"
       id="clipPath21"><rect
         style="fill:#d40000;fill-opacity:1;stroke-width:0.999999"
         id="rect22"
         width="444.5751"
         height="740.52405"
         x="173.39735"
         y="183.82727" /></clipPath><clipPath
       clipPathUnits="userSpaceOnUse"
       id="clipPath22"><rect
         style="fill:#d40000;fill-opacity:1;stroke-width:0.999999"
         id="rect23"
         width="444.5751"
         height="740.52405"
         x="173.39735"
         y="183.82727" /></clipPath><clipPath
       clipPathUnits="userSpaceOnUse"
       id="clipPath23"><rect
         style="fill:#d40000;fill-opacity:1;stroke-width:0.999999"
         id="rect24"
         width="444.5751"
         height="740.52405"
         x="173.39735"
         y="183.82727" /></clipPath><clipPath
       clipPathUnits="userSpaceOnUse"
       id="clipPath24"><rect
         style="fill:#d40000;fill-opacity:1;stroke-width:0.999999"
         id="rect25"
         width="444.5751"
         height="740.52405"
         x="173.39735"
         y="183.82727" /></clipPath><clipPath
       clipPathUnits="userSpaceOnUse"
       id="clipPath25"><rect
         style="fill:#d40000;fill-opacity:1;stroke-width:0.999999"
         id="rect26"
         width="444.5751"
         height="740.52405"
         x="173.39735"
         y="183.82727" /></clipPath><clipPath
       clipPathUnits="userSpaceOnUse"
       id="clipPath26"><rect
         style="fill:#d40000;fill-opacity:1;stroke-width:0.999999"
         id="rect27"
         width="444.5751"
         height="740.52405"
         x="173.39735"
         y="183.82727" /></clipPath><clipPath
       clipPathUnits="userSpaceOnUse"
       id="clipPath27"><rect
         style="fill:#d40000;fill-opacity:1;stroke-width:0.999999"
         id="rect28"
         width="444.5751"
         height="740.52405"
         x="173.39735"
         y="183.82727" /></clipPath><clipPath
       clipPathUnits="userSpaceOnUse"
       id="clipPath28"><rect
         style="fill:#d40000;fill-opacity:1;stroke-width:0.999999"
         id="rect29"
         width="444.5751"
         height="740.52405"
         x="173.39735"
         y="183.82727" /></clipPath><clipPath
       clipPathUnits="userSpaceOnUse"
       id="clipPath29"><rect
         style="fill:#d40000;fill-opacity:1;stroke-width:0.999999"
         id="rect30"
         width="444.5751"
         height="740.52405"
         x="173.39735"
         y="183.82727" /></clipPath><clipPath
       clipPathUnits="userSpaceOnUse"
       id="clipPath30"><rect
         style="fill:#d40000;fill-opacity:1;stroke-width:0.264583"
         id="rect31"
         width="117.62716"
         height="195.93033"
         x="45.878052"
         y="48.63763" /></clipPath><clipPath
       clipPathUnits="userSpaceOnUse"
       id="clipPath31"><rect
         style="fill:#d40000;fill-opacity:1;stroke-width:0.264583"
         id="rect32"
         width="117.62716"
         height="195.93033"
         x="45.878052"
         y="48.63763" /></clipPath></defs><g
     inkscape:label="Layer 1"
     inkscape:groupmode="layer"
     id="layer1"><path
       style="fill:#000000"
       d="m 104.71172,240.64115 c -1.59772,-1.64884 -3.77376,-5.4004 -4.59272,-7.918 -0.897524,-2.7591 -0.997252,-5.43295 -0.394305,-10.57192 l 0.376655,-3.21022 -0.876767,-3.66894 c -0.48222,-2.01792 -0.909472,-3.80111 -0.949451,-3.96265 -0.05618,-0.227 -4.207271,-0.99763 -5.517611,-1.02431 -0.277916,-0.006 -1.51009,3.52709 -2.305363,6.60968 -0.410214,1.59005 -0.506098,2.54454 -0.385393,3.83646 0.498145,5.33165 0.485887,6.43465 -0.08845,7.95849 -0.576117,1.52857 -2.039118,3.46916 -3.005156,3.98616 -0.45866,0.24547 -0.631072,0.20175 -0.999735,-0.25353 -0.374441,-0.46242 -0.403423,-0.76293 -0.181718,-1.88421 0.262497,-1.32759 0.25667,-1.34595 -1.203667,-3.79309 -2.376332,-3.9821 -2.686581,-5.13778 -2.679891,-9.98257 0.0045,-3.29069 0.120501,-4.58409 0.586841,-6.54564 0.319649,-1.34452 0.581179,-2.49496 0.581179,-2.55652 0,-0.0937 -4.121839,-1.74576 -4.355648,-1.74576 -0.2683,0 -1.236876,2.92325 -1.709488,5.15938 -1.056083,4.99679 -2.887009,7.6295 -6.845481,9.84321 -2.021138,1.13028 -8.240008,3.51825 -9.162419,3.51825 -1.877294,0 -1.940129,-0.9784 -0.198176,-3.08572 3.871378,-4.68339 4.325268,-6.20724 3.445797,-11.5686 -0.710827,-4.33329 -0.506295,-6.77445 0.801798,-9.56978 l 0.846064,-1.808 -0.870077,-0.66752 c -0.478543,-0.36713 -1.587663,-1.34937 -2.464711,-2.18276 l -1.594633,-1.51525 -1.293778,0.75561 c -2.350886,1.37299 -5.136054,3.9482 -7.295556,6.74559 -1.171199,1.51715 -2.673565,3.23741 -3.338591,3.82279 -1.556469,1.37006 -3.705787,2.19835 -6.082139,2.3439 -3.141957,0.19245 -3.7719,-0.58534 -1.97826,-2.44254 0.700073,-0.72488 1.257761,-1.70338 1.734681,-3.04362 0.386593,-1.0864 1.054228,-2.63444 1.483634,-3.44009 0.834338,-1.56538 5.448255,-7.11126 8.526454,-10.2487 l 1.86974,-1.90573 -1.148709,-1.66614 c -1.554434,-2.25464 -1.864516,-2.59219 -2.381207,-2.59219 -0.243801,0 -1.326676,0.77003 -2.406389,1.71119 -2.497704,2.17718 -5.03416,3.47576 -7.881625,4.03513 -2.067705,0.40618 -2.549541,0.40443 -7.276041,-0.0265 -7.762319,-0.7078 -11.387415,-1.46405 -14.447711,-3.01404 -1.633525,-0.82736 -2.53882,-2.01268 -1.861057,-2.43673 0.217028,-0.13579 1.050466,-0.32294 1.852083,-0.4159 5.051566,-0.58577 8.852183,-2.0329 11.452625,-4.36072 1.551636,-1.38897 3.999163,-4.3856 5.934842,-7.26634 2.279675,-3.39269 4.17916,-4.97111 7.254056,-6.02792 0.375399,-0.12902 0.391815,-0.31671 0.12955,-1.48119 -0.165176,-0.7334 -0.430548,-1.46369 -0.589715,-1.62285 -0.166179,-0.16618 -1.404178,-0.3015 -2.907674,-0.31782 -2.486816,-0.027 -2.764413,0.0285 -5.528697,1.10521 l -2.910417,1.13364 -3.175,-0.22866 c -1.74625,-0.12575 -3.948906,-0.18396 -4.894791,-0.12934 -4.19639,0.24231 -4.358493,0.22402 -4.440007,-0.50086 -0.05715,-0.50825 0.389744,-1.16449 1.92936,-2.83317 2.564044,-2.77899 4.172449,-3.6159 8.057349,-4.19255 2.467474,-0.36626 3.015996,-0.55374 5.043534,-1.72391 1.772832,-1.02316 2.884508,-1.44951 5.036631,-1.93165 l 2.761674,-0.6187 0.07611,-2.26444 0.07611,-2.26443 -2.192777,-0.87271 c -2.13609,-0.85014 -2.278275,-0.87035 -5.500069,-0.78206 -8.460541,0.23188 -8.727424,0.21686 -10.451041,-0.58808 -1.936303,-0.90427 -3.302521,-2.18895 -4.55758,-4.28559 -1.293453,-2.16078 -1.589182,-2.46819 -3.115337,-3.2383 -0.727604,-0.36716 -1.403906,-0.79436 -1.502893,-0.94934 -0.295563,-0.46273 0.244807,-1.16104 1.139915,-1.47308 1.581414,-0.55128 2.469838,-0.34316 5.810754,1.36124 l 3.241442,1.65364 2.269975,-0.0152 c 1.974751,-0.0133 2.582708,-0.14065 4.674599,-0.97952 4.157195,-1.66708 7.080516,-1.75614 9.948035,-0.30305 0.729299,0.36956 1.384254,0.61368 1.455455,0.54247 0.0712,-0.0712 0.460304,-1.4371 0.864675,-3.03533 l 0.735218,-2.90587 -1.761078,-1.81111 c -1.2887,-1.3253 -2.131425,-2.53343 -3.141769,-4.50402 -1.619692,-3.15907 -3.076557,-4.74389 -5.420419,-5.8965 -1.500482,-0.73788 -1.947639,-0.82244 -5.084742,-0.96162 -1.891771,-0.0839 -4.090638,-0.33165 -4.88637,-0.55047 -1.873538,-0.51523 -3.954527,-1.90981 -5.399859,-3.61874 -1.389146,-1.64249 -1.752313,-2.30375 -1.752313,-3.19065 0,-0.97956 0.895811,-1.09343 3.169353,-0.40287 1.540901,0.46804 2.322895,0.55554 3.940583,0.44092 2.038165,-0.14441 3.182815,-0.50605 7.839022,-2.47671 2.220872,-0.93994 2.559449,-1.00806 5.027084,-1.01131 2.339141,-0.003 2.828383,0.0814 4.220691,0.72894 2.212783,1.02911 4.009313,2.49167 6.091619,4.9592 1.83676,2.17655 4.001608,3.9299 4.350056,3.52318 0.505112,-0.58957 2.667842,-3.78239 2.667842,-3.93851 0,-0.0971 -0.485865,-0.72854 -1.079699,-1.40317 -0.593835,-0.67464 -1.671483,-2.46578 -2.394773,-3.98032 -1.189734,-2.49126 -1.561843,-2.99605 -3.904202,-5.29629 -2.867634,-2.816073 -3.148337,-3.35483 -3.861585,-7.411585 -0.230455,-1.310766 -0.667357,-2.682057 -1.077497,-3.381909 -0.86422,-1.474678 -0.715229,-1.935539 0.625735,-1.935539 3.422732,0 6.818761,2.390407 10.25989,7.221761 1.981698,2.78231 4.288648,5.300792 6.563972,7.165832 l 1.801788,1.4769 2.02329,-1.63102 c 1.112809,-0.89705 2.046978,-1.64267 2.07593,-1.65693 0.02895,-0.0143 -0.373984,-0.55786 -0.895414,-1.208 -0.52143,-0.650148 -1.255995,-1.836929 -1.632366,-2.637293 -0.63486,-1.35005 -0.695415,-1.808924 -0.83797,-6.35 l -0.153659,-4.894792 -1.50643,-3.704166 c -1.752489,-4.309201 -2.161293,-6.167814 -1.913299,-8.698735 0.201516,-2.056584 0.431754,-2.800391 1.06188,-3.430517 0.642937,-0.642937 1.209425,-0.21677 2.385891,1.794895 1.214926,2.077431 3.111853,4.07061 5.884534,6.183124 3.976973,3.030068 5.199039,4.874813 6.166812,9.308988 0.293328,1.343983 0.710135,2.78552 0.926237,3.203416 0.56659,1.095663 1.962433,2.619037 2.399782,2.619037 0.205946,0 1.473534,-0.470636 2.816862,-1.045857 l 2.442416,-1.045857 0.21245,-2.062997 c 0.348471,-3.383836 0.06385,-5.960978 -0.987594,-8.942164 -1.587046,-4.49981 -1.187457,-7.18123 1.507645,-10.116988 1.433432,-1.561429 2.185406,-2.649323 2.425526,-3.509054 0.640504,-2.293266 1.255655,-2.679471 2.251457,-1.413514 0.917984,1.167027 1.403964,3.341766 1.313872,5.879519 -0.199466,5.618675 -0.146891,6.062406 1.022617,8.63087 1.102487,2.421275 2.002882,5.383812 2.294131,7.548299 l 0.161241,1.198299 1.910786,-0.235445 c 1.050932,-0.129495 2.059614,-0.278039 2.241515,-0.330099 0.520677,-0.149017 0.40652,-3.283236 -0.248205,-6.814509 -0.833577,-4.495919 -0.570441,-6.076309 1.871681,-11.241258 2.521077,-5.331929 2.712977,-6.051797 2.869197,-10.762787 0.0724,-2.182812 0.2517,-4.117578 0.39848,-4.299479 0.57226,-0.709194 1.27754,-0.301162 2.80767,1.624346 3.44223,4.331686 5.2836,8.168676 5.84003,12.169247 0.1571,1.129453 0.28563,3.711805 0.28563,5.73856 0,3.406991 0.0614,3.869653 0.81332,6.132417 0.58945,1.773755 0.85408,3.157473 0.96141,5.027097 0.12265,2.136373 0.22159,2.580188 0.57574,2.582599 0.23521,0.0016 0.85627,0.07381 1.38013,0.160467 l 0.95248,0.157555 1.22338,-3.533905 c 2.09324,-6.046632 2.25045,-7.024649 2.03522,-12.662029 -0.0804,-2.104811 -0.008,-2.70715 0.4458,-3.704166 0.59513,-1.307917 1.93901,-2.79324 2.76422,-3.055152 0.91395,-0.290077 1.50118,0.515204 1.35051,1.851982 -0.1157,1.026467 0.0215,1.420896 1.2156,3.495208 2.08964,3.629934 2.25931,4.231584 2.26359,8.026712 0.003,3.05305 -0.0819,3.62884 -1.10967,7.490152 -0.61237,2.300573 -1.1134,4.270214 -1.1134,4.376979 0,0.106766 0.65153,0.415583 1.44785,0.68626 l 1.44786,0.492142 1.17899,-1.086757 c 0.64845,-0.597716 2.37446,-1.875054 3.83558,-2.83853 4.11295,-2.712112 5.0543,-4.411794 5.0543,-9.125945 0,-3.050572 0.66095,-5.921529 1.89724,-8.241048 1.44251,-2.706425 2.62503,-2.968834 3.00898,-0.667709 0.31201,1.870037 1.4245,4.640711 3.43278,8.549403 2.2077,4.296826 3.0926,7.368884 3.11555,10.816094 0.0243,3.643713 -1.50125,7.422954 -4.20016,10.405351 -0.78846,0.871274 -1.43355,1.684464 -1.43355,1.807094 1e-5,0.12264 0.44082,0.58016 0.97959,1.01672 2.04342,1.65578 1.77586,1.65568 3.56276,0.001 2.00123,-1.85279 3.00037,-2.48965 5.61094,-3.576431 2.70846,-1.127533 3.31465,-1.682361 5.21266,-4.770951 1.93882,-3.155007 3.28315,-4.588414 5.09404,-5.431563 1.40063,-0.652138 3.19399,-0.84813 3.48291,-0.380641 0.0889,0.143843 -0.0827,0.813822 -0.38126,1.488842 -0.29859,0.675019 -0.54525,1.777719 -0.54814,2.450445 -0.0226,5.274933 -1.53481,8.250749 -6.12628,12.055629 -5.4155,4.48773 -6.382,5.33607 -6.88743,6.04541 l -0.52609,0.73832 0.68999,0.84918 c 0.37949,0.46705 1.18337,1.56356 1.7864,2.43668 0.60302,0.87313 1.14221,1.64181 1.19819,1.70819 0.32427,0.38453 2.21236,-1.18041 3.55989,-2.95061 0.85785,-1.12692 1.94406,-2.41691 2.4138,-2.86664 2.01306,-1.92733 5.76923,-3.07932 9.05615,-2.77747 3.68524,0.33843 12.28431,2.48455 16.55665,4.13213 1.91081,0.73689 3.95501,2.18052 3.94451,2.78564 -0.0136,0.78244 -0.59019,0.98805 -3.34506,1.19278 -3.6033,0.26778 -5.42282,0.74707 -8.13274,2.14228 -3.05456,1.57265 -5.5639,4.16915 -7.96503,8.24166 -2.35595,3.9959 -3.68483,5.25409 -6.38982,6.04991 -1.14025,0.33547 -1.94455,0.71598 -1.94455,0.91996 0,0.19133 0.19464,1.04796 0.43254,1.90363 l 0.43254,1.55576 3.01828,0.32513 c 3.26641,0.35185 3.31566,0.34765 7.62601,-0.64973 1.9632,-0.45427 3.68631,-0.67423 5.29439,-0.67585 2.13963,-0.002 2.60062,-0.097 4.49791,-0.9252 2.15184,-0.93935 3.52587,-1.13383 4.74256,-0.67124 0.94518,0.35935 0.84809,0.96523 -0.33454,2.08763 -0.55727,0.5289 -1.3956,1.57499 -1.86296,2.32466 -1.07856,1.73007 -3.03386,3.56448 -4.69855,4.40805 -2.56065,1.29757 -9.52721,2.78981 -15.11329,3.23727 l -2.18281,0.17485 v 3.13184 c 0,2.22 0.0963,3.19141 0.33073,3.33641 0.1819,0.1125 3.00964,0.27801 6.28386,0.3678 5.22545,0.14329 6.16159,0.23587 7.65863,0.75738 2.58963,0.90214 4.29055,2.17805 6.25176,4.68966 0.96103,1.23074 2.204,2.53992 2.76215,2.90929 1.17265,0.77602 1.42667,1.25512 1.04428,1.96962 -0.22981,0.42942 -0.56705,0.51 -2.13421,0.51 -1.52601,0 -2.48938,-0.21805 -5.3485,-1.21062 -4.5181,-1.5685 -6.39665,-1.73293 -10.38947,-0.90938 -2.29337,0.47302 -3.38191,0.56388 -5.29141,0.44166 l -2.40405,-0.15387 -0.71912,2.91615 c -0.39551,1.60389 -0.78027,3.07551 -0.85501,3.27028 -0.09,0.23455 0.51786,0.67131 1.80026,1.29351 1.34576,0.65294 2.90429,1.79452 5.11114,3.74375 4.20633,3.71531 5.29678,4.23905 9.92188,4.76547 4.18192,0.47598 5.50137,0.86207 7.59006,2.22099 2.66041,1.73088 5.17327,4.87548 4.7589,5.95531 -0.20627,0.53753 -1.24274,0.53824 -2.50173,0.002 -1.43963,-0.6135 -3.69571,-0.87695 -5.31622,-0.62079 -0.78707,0.12442 -2.90836,0.92607 -4.7612,1.7993 -4.08224,1.92391 -4.87505,2.14777 -7.6133,2.14964 -3.79193,0.003 -6.26075,-1.11414 -10.30455,-4.66112 -1.65896,-1.45514 -4.38496,-2.91366 -4.87715,-2.60947 -0.15293,0.0945 -0.92659,1.14053 -1.71925,2.32448 l -1.4412,2.15264 0.85584,0.90048 c 0.47071,0.49526 2.16553,1.88828 3.76626,3.0956 5.14315,3.87911 6.10008,5.30534 6.53386,9.73821 0.3643,3.72286 0.34142,3.64812 1.5299,4.9983 1.62978,1.85153 1.49441,2.1126 -0.98616,1.90199 -1.12779,-0.0958 -2.54769,-0.38776 -3.15533,-0.64891 -1.6478,-0.70818 -3.43516,-2.50685 -4.7413,-4.77132 -0.6398,-1.10922 -1.3721,-2.20573 -1.62733,-2.43669 -0.25523,-0.23096 -1.65468,-1.00861 -3.10989,-1.7281 -1.45521,-0.7195 -3.26741,-1.79957 -4.02712,-2.40015 -0.7597,-0.60058 -1.47407,-1.08854 -1.5875,-1.08435 -0.11342,0.004 -1.15472,0.88012 -2.31399,1.94651 l -2.10778,1.9389 0.51316,1.13798 c 0.77299,1.71419 1.81651,3.02883 3.36512,4.23939 2.34525,1.83332 4.19329,3.75018 4.82929,5.00916 1.93246,3.82533 1.36594,10.21416 -1.42012,16.01524 -1.387,2.88796 -2.04066,3.66059 -2.98393,3.52699 -0.57379,-0.0813 -0.63811,-0.26861 -0.91576,-2.6675 -0.59584,-5.14809 -2.01488,-7.34393 -7.30934,-11.31053 -4.08194,-3.0582 -6.01244,-4.92026 -7.26912,-7.01146 -0.5247,-0.87313 -0.97618,-1.61965 -1.00331,-1.65895 -0.0271,-0.0393 -0.9895,0.32447 -2.13862,0.80838 -1.62288,0.68341 -2.08391,0.9947 -2.06508,1.39436 0.10671,2.26578 0.75795,6.44231 1.27666,8.18746 1.47485,4.962 1.19641,6.28959 -2.22694,10.61795 -1.14332,1.44558 -1.19588,1.59042 -1.32291,3.6458 -0.11793,1.9079 -0.19146,2.14888 -0.67697,2.21833 -0.83594,0.11957 -1.90566,-0.89383 -2.7875,-2.64075 -1.05127,-2.08255 -1.2001,-3.57635 -0.65297,-6.55356 0.5186,-2.82191 0.44832,-3.29864 -0.94316,-6.39794 -0.56428,-1.25684 -1.21392,-3.16184 -1.44364,-4.23333 -0.22973,-1.07149 -0.45696,-2.07901 -0.50496,-2.23892 -0.0613,-0.20414 -0.78398,-0.16157 -2.42601,0.14287 l -2.33875,0.43363 0.0859,1.8415 c 0.0472,1.01283 0.25558,2.65296 0.46302,3.64474 0.86312,4.12667 0.3794,6.17979 -2.44328,10.3703 -3.32818,4.94095 -4.10031,7.12659 -4.02725,11.39971 0.0276,1.61467 -0.0347,3.07318 -0.13855,3.24115 -0.36904,0.59713 -1.37796,0.30031 -2.33446,-0.68679 z m -0.0993,-16.55375 c 0.66986,-1.8649 1.21793,-3.86045 1.21793,-4.43457 0,-0.57412 -0.24859,-2.14392 -0.55243,-3.48844 -1.14287,-5.05748 0.0285,-8.611 2.41708,-7.33266 0.47823,0.25594 0.54302,0.45915 0.406,1.27338 -0.48537,2.88423 -0.46719,3.99218 0.10545,6.42718 0.72213,3.07067 0.62995,3.90373 -0.95393,8.6203 -0.65842,1.96066 -1.14727,3.61467 -1.08635,3.67559 0.0609,0.0609 0.47723,-0.45605 0.92513,-1.14881 0.44791,-0.69277 1.4731,-2.19624 2.2782,-3.34104 2.06716,-2.93935 2.2581,-3.95874 1.49626,-7.98809 -0.39209,-2.07373 -0.55715,-3.78341 -0.49126,-5.0883 0.1226,-2.4278 0.47408,-2.78415 3.19464,-3.23885 5.20179,-0.8694 11.31099,-2.67459 16.14081,-4.7694 1.32297,-0.5738 2.56175,-1.04327 2.75284,-1.04327 0.19109,0 0.6935,0.68461 1.11645,1.52135 1.17736,2.32918 3.02656,4.67815 4.58098,5.81906 0.77248,0.56698 2.41653,1.77042 3.65346,2.67431 2.67277,1.95313 5.55141,4.72097 6.24023,6.00003 0.59304,1.10121 0.97674,1.19895 0.74974,0.19098 -0.48239,-2.14194 -0.70988,-2.73112 -1.46556,-3.79569 -1.24365,-1.752 -2.49161,-2.99708 -5.19919,-5.18721 -2.7047,-2.18779 -3.62304,-3.35468 -4.97508,-6.32153 -1.01678,-2.23119 -1.10289,-2.89146 -0.46851,-3.59245 0.93641,-1.03472 2.25833,-0.2913 2.71633,1.52758 0.68061,2.70295 1.82893,4.22584 5.13987,6.81647 2.07406,1.62284 4.14112,3.65359 5.42256,5.3273 l 0.60771,0.79375 -0.13581,-1.36843 c -0.23087,-2.32626 -1.1835,-3.77345 -4.23557,-6.43442 -1.51013,-1.31663 -3.04356,-2.84398 -3.40762,-3.3941 -0.98504,-1.48849 -1.95714,-3.50371 -2.17422,-4.50725 -0.18323,-0.84706 -0.10931,-0.96113 1.62105,-2.50146 0.99716,-0.88766 3.36598,-3.16717 5.26402,-5.06559 2.7919,-2.79244 3.94268,-4.19205 6.02539,-7.3283 1.41591,-2.13216 2.72809,-3.93563 2.91596,-4.00772 0.63026,-0.24185 3.16974,0.37842 4.65602,1.13724 0.80986,0.41347 2.4686,1.59973 3.6861,2.63612 1.2175,1.0364 2.76531,2.16307 3.43958,2.50372 2.50141,1.26374 5.29963,1.44458 7.90669,0.51098 1.34549,-0.48182 1.45823,-0.88808 0.24646,-0.88808 -2.39905,0 -5.48912,-1.49618 -9.57303,-4.63518 -3.17006,-2.43659 -4.4436,-3.20615 -6.5849,-3.97908 -1.383,-0.49921 -1.62963,-0.68743 -1.70316,-1.29981 -0.12817,-1.06751 0.66067,-1.81091 1.73639,-1.63635 1.44685,0.23479 4.0411,1.66886 6.8195,3.76972 5.73793,4.33868 7.16747,4.88159 12.75456,4.84391 2.15102,-0.0145 4.2086,-0.11686 4.57241,-0.22745 l 0.66145,-0.20109 -0.68479,-0.27888 c -0.37663,-0.15339 -2.19318,-0.47333 -4.03677,-0.71099 -1.84359,-0.23765 -3.82173,-0.59783 -4.39587,-0.8004 -1.57792,-0.55672 -3.52847,-1.89852 -6.88986,-4.73956 -2.76497,-2.33696 -3.90318,-3.04447 -7.20989,-4.4817 -1.14391,-0.49719 -1.24889,-1.05362 -0.61055,-3.23605 1.82309,-6.23295 2.53193,-10.62294 2.7099,-16.78292 0.16074,-5.56358 -0.41605,-11.23636 -1.62695,-16.00122 -0.36896,-1.45188 -0.67084,-2.89194 -0.67084,-3.20014 0,-0.8563 0.73751,-1.32121 2.91042,-1.83466 1.0914,-0.25789 2.28203,-0.62075 2.64583,-0.80636 1.05356,-0.53752 2.2443,-1.95698 3.31728,-3.95449 1.93437,-3.60113 4.79062,-6.95788 7.60017,-8.93197 0.8386,-0.58923 1.47711,-1.11896 1.4189,-1.17717 -0.18697,-0.18697 -3.3752,1.21269 -4.70253,2.06443 -1.65233,1.0603 -3.07478,2.65592 -5.50555,6.17582 -1.07609,1.55823 -2.4322,3.24032 -3.01359,3.73797 -1.16583,0.9979 -3.46784,1.96737 -4.67155,1.96737 -0.73084,0 -1.3223,-0.57934 -1.3223,-1.29521 0,-0.52094 1.10829,-1.29793 2.65663,-1.86248 1.70802,-0.62278 2.39592,-1.32456 4.578,-4.67035 2.56979,-3.94027 6.13293,-7.04335 9.61978,-8.37769 0.81622,-0.31235 1.33598,-0.61726 1.15501,-0.67759 -0.71209,-0.23736 -3.69693,0.56819 -5.70629,1.54003 -2.56271,1.23947 -4.2993,2.73067 -6.57713,5.64777 -1.68737,2.16092 -4.92693,4.93972 -6.20811,5.32514 -1.38432,0.41644 -2.43124,-0.45536 -2.0373,-1.69652 0.0891,-0.28086 0.8413,-0.89346 1.67147,-1.36133 2.33262,-1.31462 3.1631,-2.04118 4.818,-4.21515 2.05618,-2.70112 4.01779,-4.44285 6.51865,-5.78798 l 2.079,-1.11822 -2.38125,0.11235 c -3.69566,0.17437 -4.83472,0.82363 -7.70057,4.38934 -3.24381,4.03598 -5.8199,5.45226 -7.14396,3.92758 -0.28434,-0.32742 -0.91987,-1.19062 -1.41229,-1.91823 -2.84576,-4.20489 -6.83988,-8.61602 -11.99086,-13.24278 -1.23556,-1.10981 -1.78253,-1.79095 -1.78253,-2.21975 0,-0.41956 0.68554,-1.30921 2.13022,-2.764514 2.45209,-2.470115 3.42585,-4.239647 4.07548,-7.40603 0.23529,-1.146838 0.37719,-2.135769 0.31534,-2.197625 -0.0619,-0.06186 -0.32975,0.578322 -0.59531,1.422618 -0.74671,2.373993 -2.81507,5.198379 -5.52885,7.549787 -1.30969,1.134802 -2.65839,2.204304 -2.99711,2.376684 -0.8108,0.4126 -1.47208,0.003 -1.5887,-0.984666 -0.0741,-0.627258 0.17267,-0.976347 1.57083,-2.222272 2.96505,-2.64221 4.09316,-3.862805 4.9252,-5.328992 1.29389,-2.280043 2.47896,-5.958459 2.59518,-8.055375 0.095,-1.714556 0.0863,-1.751926 -0.11706,-0.503266 -0.77489,4.757275 -3.6984,8.864813 -7.84125,11.016937 -1.06053,0.550928 -2.33816,1.488514 -2.9611,2.172998 -1.20972,1.329241 -2.06446,1.538831 -2.82925,0.693751 -0.98058,-1.083531 0.14959,-2.525595 3.68701,-4.704527 4.3551,-2.682593 5.72372,-4.19657 6.62351,-7.326973 0.53587,-1.864302 0.43204,-5.594407 -0.19589,-7.037461 l -0.40296,-0.926042 -0.16693,1.322917 c -0.87901,6.966518 -1.74696,8.478517 -6.78377,11.817589 -1.23693,0.819999 -3.06696,2.240875 -4.06674,3.157501 l -1.81777,1.666592 -1.22493,-0.4715 c -4.14639,-1.596022 -7.87361,-2.688326 -11.92794,-3.495619 -2.53967,-0.505697 -4.68279,-0.984677 -4.7625,-1.0644 -0.0797,-0.07972 -0.15073,-1.414937 -0.15783,-2.967141 -0.0114,-2.488074 -0.11877,-3.135425 -0.90708,-5.468022 -0.86681,-2.564866 -0.89647,-2.791607 -0.96921,-7.409347 -0.0477,-3.02629 -0.22606,-5.481396 -0.48912,-6.731966 -0.22774,-1.082649 -0.44913,-2.003501 -0.49197,-2.046339 -0.0428,-0.04284 -0.22054,1.149377 -0.3949,2.649368 -0.17436,1.49999 -0.61235,3.94693 -0.97331,5.437645 -0.93897,3.87784 -0.87526,4.968181 0.53434,9.144802 1.5574,4.614556 1.55763,6.426231 9.7e-4,7.446197 -0.55247,0.36199 -0.81073,0.39055 -1.34215,0.148418 -0.899,-0.409612 -1.0466,-0.946842 -0.66702,-2.427875 0.37043,-1.445332 0.21239,-2.283498 -1.07129,-5.681737 -1.21989,-3.229355 -1.26254,-5.053299 -0.21964,-9.392708 0.625,-2.600516 0.88373,-4.363352 0.95143,-6.482292 l 0.093,-2.910416 -0.40941,1.852083 c -0.22518,1.018646 -1.06951,3.221302 -1.87629,4.894792 -0.80679,1.673489 -1.69282,3.686425 -1.96896,4.473191 -0.62443,1.779071 -0.65075,4.401005 -0.0685,6.821328 0.23848,0.991296 0.44799,2.862388 0.46558,4.157982 0.0292,2.15025 0.0823,2.378086 0.60929,2.613232 0.89458,0.399171 0.99505,1.038695 0.26222,1.669048 -0.52335,0.450169 -1.13415,0.584014 -3.257926,0.713915 -5.081336,0.310802 -12.050868,2.191708 -17.92901,4.8386 -3.633731,1.636248 -3.363123,1.68413 -5.500478,-0.97327 C 73.178654,92.446453 72.675142,91.358604 71.964221,88.309659 71.345318,85.655355 70.46263,83.85655 69.159038,82.59306 l -0.894127,-0.866622 0.559951,1.570635 c 0.41834,1.173423 0.608409,2.546502 0.751559,5.429355 0.237543,4.783783 0.7196,6.069394 3.009283,8.025532 0.822048,0.702297 1.494632,1.474073 1.494632,1.715059 0,0.876645 -0.7833,1.614231 -1.714277,1.614231 -0.742527,0 -1.093849,-0.230845 -2.114005,-1.389062 -0.672916,-0.763985 -1.650531,-2.247766 -2.172478,-3.297291 -0.922413,-1.854778 -0.954577,-2.022031 -1.148299,-5.971072 -0.16802,-3.425121 -0.303091,-4.319795 -0.860517,-5.699843 -0.772133,-1.91161 -2.899908,-5.286154 -3.049723,-4.836709 -0.05656,0.169669 0.222148,1.108426 0.619343,2.086129 1.386698,3.413384 1.496286,4.003559 1.68114,9.053682 0.16615,4.539138 0.230293,5.005383 0.882799,6.416845 0.386998,0.837129 1.305387,2.158321 2.040866,2.935981 0.735479,0.77766 1.337234,1.65105 1.337234,1.94087 0,0.34773 -0.742374,1.09888 -2.182812,2.20861 -4.294604,3.3086 -8.923933,8.36124 -12.407491,13.54204 -1.189782,1.76946 -1.704867,2.3244 -2.157437,2.3244 -1.294637,0 -3.928457,-1.95206 -6.86735,-5.08976 -3.720138,-3.97179 -4.798437,-4.56754 -8.267201,-4.56751 -1.665802,2e-5 -2.605382,0.12437 -3.127236,0.4139 l -0.745986,0.41388 1.769154,0.32598 c 3.187466,0.58732 5.140698,1.8088 8.84606,5.53204 3.448303,3.46495 4.50533,4.29175 5.488887,4.2934 0.849636,0.001 1.480754,1.06434 1.149418,1.93581 -0.390866,1.02806 -1.374967,1.57963 -2.234961,1.25266 -1.114429,-0.4237 -3.941253,-2.81564 -5.592949,-4.73251 -3.730829,-4.3298 -6.591886,-5.83141 -11.299046,-5.93022 -2.255518,-0.0473 -5.900613,0.56402 -5.5361,0.92853 0.134478,0.13448 1.65655,0.33779 3.382382,0.4518 3.45056,0.22795 5.408492,0.78181 7.493534,2.11977 2.078539,1.3338 4.033629,3.61377 5.446894,6.35202 1.217904,2.35973 2.375458,3.79207 4.551095,5.63146 0.472942,0.39985 0.859895,0.94323 0.859895,1.2075 0,0.26428 -0.30167,1.48375 -0.670379,2.70994 -2.877756,9.57037 -3.228151,20.10804 -0.996477,29.96769 0.503148,2.22293 0.631815,3.25422 0.443294,3.55308 -0.14609,0.2316 -1.035139,0.68067 -1.975666,0.99794 -3.256548,1.09852 -4.259509,1.95078 -6.851647,5.82216 -1.964869,2.93456 -4.876309,6.56233 -6.122819,7.6293 -0.576611,0.49356 -1.787088,1.29661 -2.689949,1.78455 -1.330201,0.7189 -1.527353,0.90397 -1.039419,0.97576 0.759338,0.11172 3.816086,-0.87183 5.245104,-1.68769 1.467464,-0.8378 3.761545,-3.36764 5.707571,-6.29412 2.081026,-3.1295 3.690847,-4.79114 5.569405,-5.74866 1.939131,-0.98841 3.275393,-1.02826 3.693708,-0.11016 0.442352,0.97086 -0.05594,1.88677 -1.155675,2.12422 -2.268173,0.48973 -3.230213,1.34369 -5.79788,5.14647 -1.994977,2.95462 -4.607272,5.81034 -6.452514,7.05377 -1.646269,1.10936 -1.400167,1.13176 0.731618,0.0666 2.11775,-1.05815 3.982486,-2.46149 6.910787,-5.20084 2.822646,-2.64051 4.159084,-3.46761 5.944694,-3.67909 1.688137,-0.19994 2.681244,0.3423 2.681244,1.46396 0,0.83904 -0.808301,1.35929 -2.111891,1.35929 -1.300668,0 -1.96384,0.40861 -4.879271,3.00632 -1.552299,1.38313 -3.735948,3.05847 -4.852552,3.72298 -2.207036,1.31344 -2.085136,1.43079 0.811276,0.78095 2.681764,-0.60168 4.292027,-1.42906 6.413449,-3.29534 2.22658,-1.95878 3.797989,-2.74401 5.076252,-2.53657 1.213602,0.19694 1.468257,0.43893 3.249355,3.08781 3.17692,4.72475 8.212003,10.26968 12.102236,13.32769 1.055027,0.82932 1.91823,1.68845 1.91823,1.90917 0,0.22072 -0.499732,1.41923 -1.110516,2.66335 -0.988515,2.01353 -1.12256,2.51395 -1.220151,4.55516 -0.07396,1.54687 0.04127,3.02278 0.354074,4.53528 0.512034,2.47582 0.636984,5.00125 0.306309,6.19097 -0.186693,0.67169 -0.162421,0.73011 0.183938,0.44266 0.668923,-0.55516 1.190583,-2.6492 1.462355,-5.87016 0.320814,-3.80218 0.831266,-5.22706 2.779458,-7.75854 0.783414,-1.01798 0.785263,-1.0277 0.111416,-0.58618 -0.565752,0.37069 -0.805321,0.39425 -1.37409,0.1351 -0.378879,-0.17263 -0.756826,-0.52798 -0.839882,-0.78966 -0.201653,-0.63536 0.534087,-2.01094 1.186276,-2.21794 1.021139,-0.3241 2.366725,0.97635 2.001969,1.93481 -0.13494,0.35458 -0.102235,0.37673 0.164835,0.11162 0.482984,-0.47944 1.11704,-0.40724 1.911452,0.21764 1.009416,0.79401 0.868515,1.42212 -0.66245,2.95308 -1.883719,1.88372 -2.270938,2.91024 -2.592753,6.87335 -0.174878,2.15361 -0.459362,3.81647 -0.801365,4.68414 -0.29163,0.73988 -0.437075,1.34523 -0.323211,1.34523 0.349525,0 2.083366,-1.93502 2.530714,-2.82435 0.232386,-0.46198 0.738667,-2.18821 1.125071,-3.83606 0.778941,-3.32185 1.3286,-4.76668 2.524136,-6.63491 0.963269,-1.50527 1.398646,-1.56736 3.414075,-0.48692 4.216483,2.26039 13.032794,4.4229 20.089177,4.92756 2.67802,0.19153 3.43958,0.53842 3.43958,1.56673 0,0.82664 -0.50418,1.20253 -1.61293,1.20253 h -0.97793 l 0.67575,2.4474 c 0.71826,2.60137 0.81561,4.89565 0.56413,13.29531 -0.0811,2.7078 -0.0195,3.58031 0.28953,4.10104 0.3754,0.63262 0.40014,0.56917 0.56739,-1.45521 0.12594,-1.52435 0.51569,-3.0655 1.3928,-5.50739 z m -3.54457,-18.07581 c -18.412501,-1.36302 -34.045676,-10.24882 -43.910612,-24.95854 -3.474218,-5.18044 -5.231246,-8.89402 -7.141693,-15.09437 -1.788114,-5.80332 -2.255796,-9.21971 -2.2451,-16.40035 0.01015,-6.81459 0.278902,-9.07908 1.723117,-14.51896 1.468017,-5.52953 3.825249,-10.85131 6.862756,-15.49363 2.670258,-4.08104 3.953313,-5.69774 7.131923,-8.98653 9.167879,-9.48568 20.736449,-15.485643 33.24205,-17.240766 3.819059,-0.535993 11.377379,-0.606287 14.920889,-0.138766 22.02997,2.906569 39.99649,17.643972 46.99034,38.544772 2.51481,7.51543 3.41989,17.22543 2.35775,25.29481 -2.48988,18.9162 -13.99714,34.97879 -30.95955,43.21538 -5.47718,2.6596 -11.04023,4.34612 -17.39797,5.27444 -2.93441,0.42847 -9.01043,0.69227 -11.5739,0.50251 z m 8.28884,-2.76104 c 15.40359,-1.35252 28.58511,-8.32717 38.03235,-20.12378 5.72982,-7.15473 9.57796,-16.19805 10.99798,-25.84575 0.58175,-3.95245 0.58083,-11.75602 -0.002,-15.54973 -1.20358,-7.83647 -4.18167,-15.70805 -8.30013,-21.93858 -7.39817,-11.19219 -19.12478,-19.51022 -32.08387,-22.758064 -4.33352,-1.086077 -7.98583,-1.514027 -13.09688,-1.534593 -5.589864,-0.02249 -8.670556,0.328339 -13.444079,1.531025 -15.462904,3.895862 -28.540536,14.453442 -35.732722,28.847052 -2.678074,5.35958 -4.202736,10.27585 -5.062442,16.32384 -0.507465,3.56998 -0.506189,10.99585 0.0026,14.87677 1.965503,14.99371 10.526755,28.78289 23.015858,37.07049 10.593233,7.02953 23.056065,10.20918 35.673219,9.10132 z m -8.15655,-26.71341 c -7.643151,-0.85756 -14.401716,-3.82562 -19.294471,-8.47326 -1.521392,-1.44517 -2.00449,-2.07451 -2.00449,-2.61127 0,-1.81308 1.539204,-1.81565 3.317238,-0.006 1.464255,1.49068 5.043962,4.02766 7.266096,5.14957 4.928751,2.48841 11.748747,3.68419 17.479097,3.06468 7.03352,-0.76041 13.74426,-3.68171 18.14136,-7.89727 1.81512,-1.74018 2.25837,-1.91141 3.21442,-1.24177 1.397,0.9785 0.47802,2.33582 -3.65749,5.40211 -6.60098,4.89433 -16.33198,7.52491 -24.46176,6.61274 z m -1.374062,-16.89366 c -1.640887,-0.20914 -2.726982,-1.07641 -2.726982,-2.17755 0,-0.40227 0.715339,-2.13769 1.589643,-3.85648 2.374451,-4.66793 2.730151,-6.27137 2.760291,-12.44298 0.0265,-5.43035 0.1195,-5.82838 1.2928,-5.5339 0.92203,0.23141 1.25986,1.36728 1.42691,4.79764 0.2874,5.90147 -1.064,11.45577 -3.74567,15.39486 l -0.687127,1.0093 0.996677,0.18319 c 1.52861,0.28096 8.27273,0.25133 8.27273,-0.0363 0,-0.13752 -0.40412,-1.06025 -0.89805,-2.05052 -1.77276,-3.55422 -2.54367,-6.93205 -2.53694,-11.1159 0.007,-4.61639 0.94822,-8.0148 2.21876,-8.0148 1.21053,0 1.34017,0.54837 0.82413,3.48614 -0.35449,2.01814 -0.43484,3.46412 -0.32667,5.879 0.17063,3.80902 0.75715,6.07239 2.4439,9.43091 1.37232,2.73246 1.46907,3.599 0.50322,4.50731 -0.66523,0.62561 -0.79742,0.64234 -5.35781,0.67834 -2.57166,0.0203 -5.29408,-0.0419 -6.049812,-0.13822 z M 81.616042,139.13545 c -0.439269,-0.1914 -1.177536,-0.77951 -1.640596,-1.3069 -1.410703,-1.6067 -1.479882,-3.90663 -0.164524,-5.46985 0.965542,-1.14748 1.963288,-1.58578 3.609856,-1.58578 1.656449,0 2.842734,0.65589 3.839698,2.12296 0.823535,1.21186 0.728618,3.43023 -0.202731,4.73819 -1.133906,1.59243 -3.643612,2.28486 -5.441703,1.50138 z M 124.2267,138.9159 c -3.0301,-1.76069 -3.23419,-5.64046 -0.39554,-7.51899 3.67391,-2.43128 8.40688,1.31827 6.65712,5.27389 -1.10471,2.49737 -4.02528,3.54455 -6.26158,2.2451 z m -50.622614,-5.55007 c -0.509731,-0.50973 -0.371085,-1.34686 0.431813,-2.60726 1.05809,-1.661 2.735909,-3.08433 4.774293,-4.05013 1.633934,-0.77417 1.949241,-0.83031 4.662852,-0.83031 2.725733,0 3.023889,0.0538 4.698611,0.84705 3.075615,1.45689 6.163858,4.90127 5.502494,6.13704 -0.588127,1.09892 -1.817903,0.87174 -2.508321,-0.46338 -0.210367,-0.40681 -0.88192,-1.19086 -1.49234,-1.74234 -2.831876,-2.55843 -6.495007,-3.13754 -9.772319,-1.54491 -1.957832,0.95141 -2.33223,1.25484 -3.927241,3.18277 -1.148098,1.38774 -1.771649,1.66967 -2.369842,1.07147 z m 43.272604,0.0317 c -0.78843,-0.45922 -0.55458,-1.64076 0.64525,-3.26025 4.32101,-5.83231 13.73222,-5.80828 18.02968,0.046 1.2289,1.6741 1.41782,2.45874 0.73975,3.07239 -0.69752,0.63124 -1.45241,0.36669 -2.14326,-0.75112 -0.81168,-1.31334 -2.52738,-2.75957 -4.20894,-3.54791 -1.20722,-0.56596 -1.86027,-0.69435 -3.47133,-0.68247 -3.11539,0.023 -5.41223,1.25186 -7.42035,3.97015 -1.08943,1.47471 -1.36626,1.62177 -2.1708,1.15317 z m -29.577355,89.26972 c -0.462337,-2.99558 -0.204652,-5.20286 1.070799,-9.17229 0.60083,-1.86989 1.033835,-3.55246 0.962234,-3.73905 -0.11022,-0.28723 -2.398563,-1.04322 -3.203769,-1.05842 -0.424835,-0.008 -1.191144,3.79116 -1.359899,6.74206 -0.197228,3.44879 0.265074,5.85161 1.673022,8.69556 0.827087,1.67065 1.016651,1.90565 1.095917,1.35861 0.05271,-0.3638 -0.05452,-1.63572 -0.238304,-2.82647 z m 38.159425,0.075 c 1.09304,-1.66629 1.12696,-3.10428 0.15354,-6.50899 -0.39525,-1.38244 -0.83445,-3.688 -0.97601,-5.12344 -0.14155,-1.43545 -0.308,-2.66055 -0.3699,-2.72244 -0.22548,-0.22549 -3.41451,0.81445 -3.54567,1.15623 -0.24337,0.63422 0.72556,3.82111 1.92963,6.3467 1.67929,3.52239 1.8398,4.48467 1.17858,7.06601 -0.29485,1.15106 -0.5355,2.22262 -0.53478,2.38125 0.002,0.36139 1.0482,-0.89341 2.16461,-2.59532 z M 46.590688,203.45735 c 0.494463,-0.33283 1.93253,-1.85088 3.195705,-3.37344 2.768112,-3.33652 5.309585,-5.75705 7.398468,-7.04638 0.852303,-0.52607 1.546882,-1.0884 1.543509,-1.24962 -0.0034,-0.16121 -0.554092,-0.86754 -1.223819,-1.56962 l -1.217685,-1.2765 -0.92281,0.87963 c -0.83455,0.79549 -4.437759,4.95241 -7.033561,8.1144 -0.556214,0.67754 -1.478948,2.17809 -2.05052,3.33456 -1.44232,2.91826 -1.384135,3.3278 0.310713,2.18697 z M 162.65336,200.544 c -0.21961,-3.52014 -0.8362,-4.38222 -5.62615,-7.86612 -1.45521,-1.05842 -3.0438,-2.29339 -3.53021,-2.74437 l -0.88438,-0.81997 -1.16614,1.31567 c -0.64138,0.72362 -1.16614,1.46204 -1.16614,1.64094 0,0.45841 1.82516,1.65707 4.7625,3.12773 3.34411,1.67433 4.31171,2.48644 5.46482,4.58664 0.89523,1.63052 1.86305,2.95506 2.15922,2.95506 0.0679,0 0.0618,-0.98801 -0.0135,-2.19558 z M 33.767511,159.66946 c 2.303432,-1.15731 3.84841,-1.50305 6.544165,-1.46447 l 2.611548,0.0374 -0.183568,-1.89462 c -0.100962,-1.04205 -0.264128,-1.96918 -0.36259,-2.06029 -0.09846,-0.0911 -0.952928,-0.004 -1.898813,0.19272 -1.610608,0.33565 -2.815411,0.86748 -6.759054,2.98365 -1.281359,0.68759 -2.018451,0.88876 -3.704167,1.01098 -1.95447,0.14171 -3.819148,0.75181 -4.204775,1.37577 -0.08531,0.13803 0.747197,0.32212 1.900278,0.4202 1.128651,0.096 2.165777,0.20365 2.304725,0.23922 0.557746,0.14277 2.790706,-0.35743 3.752251,-0.84054 z m 150.228399,-0.70998 c -0.23533,-0.35916 -0.95321,-1.00099 -1.5953,-1.42628 -1.93987,-1.28493 -3.81092,-1.59698 -10.20543,-1.7021 l -5.73411,-0.0942 -0.18073,1.55718 c -0.0994,0.85645 -0.10852,1.6294 -0.0203,1.71765 0.42623,0.42623 3.20463,0.34789 5.82628,-0.16428 3.59359,-0.70205 5.96141,-0.67863 9.15024,0.0905 3.3373,0.80497 3.2723,0.80446 2.75932,0.0216 z M 42.738124,142.02199 c 0.0997,-0.79801 0.120971,-1.60809 0.04726,-1.80018 -0.07371,-0.19209 -0.889169,-0.75174 -1.812127,-1.24367 -2.426651,-1.29339 -3.876259,-1.2287 -8.12,0.36236 -2.784574,1.04399 -3.540937,1.222 -5.192256,1.222 -1.063086,0 -2.439073,-0.17859 -3.057748,-0.39687 -1.37851,-0.48637 -1.60833,-0.49444 -1.437972,-0.0505 0.07311,0.19051 0.808604,0.75605 1.634439,1.25677 1.667224,1.01085 1.098169,0.96725 9.989991,0.76541 3.158727,-0.0717 3.590814,-0.022 5.291667,0.60907 1.018646,0.37792 1.992344,0.696 2.163774,0.70683 0.183494,0.0116 0.38625,-0.57706 0.492972,-1.43123 z m 128.877536,0.79123 c 2.24472,-0.13795 7.34691,-1.20702 10.17009,-2.13097 0.66584,-0.21791 1.61193,-0.81025 2.10242,-1.31631 l 0.8918,-0.92011 h -2.80146 c -2.28288,0 -3.38223,0.15197 -5.93888,0.82096 -3.24154,0.8482 -4.51336,0.8974 -8.66608,0.33522 l -1.29533,-0.17536 0.19043,1.68321 c 0.10474,0.92576 0.24999,1.77957 0.32278,1.89735 0.0728,0.11778 0.68906,0.15574 1.36948,0.0844 0.68042,-0.0714 2.32506,-0.19663 3.65475,-0.27835 z M 58.866794,105.82519 c -2.427659,-1.9326 -4.321082,-3.95444 -6.777231,-7.236862 -2.70097,-3.609607 -4.903027,-5.850361 -5.329863,-5.423525 -0.345639,0.345639 0.490515,3.432838 1.202654,4.440371 0.323133,0.457168 1.263627,1.387828 2.089987,2.068132 2.007158,1.652404 2.608333,2.491484 4.160301,5.806684 0.723397,1.54527 1.577121,3.17732 1.897164,3.62678 l 0.581897,0.8172 1.616712,-1.62814 1.616713,-1.62813 z m 99.638366,-3.11522 c 3.17926,-2.61438 4.63208,-4.521157 5.16253,-6.775649 0.92742,-3.941727 0.25437,-3.975241 -2.00552,-0.09986 -1.66926,2.862548 -2.91945,4.097173 -5.2677,5.202131 -3.90034,1.8353 -4.3352,2.10122 -5.9224,3.62161 l -1.60167,1.53424 1.27042,1.28981 1.27041,1.2898 2.16912,-1.898 c 1.19301,-1.04391 3.40918,-2.91774 4.92481,-4.16408 z m -69.740449,-13.166615 1.5875,-0.47654 -0.08609,-1.305803 C 90.137025,85.802902 89.5171,83.623993 88.323663,80.933664 86.479116,76.775557 86.299307,75.644262 86.9492,72.286035 l 0.176508,-0.912076 -0.575125,0.509063 c -0.316318,0.279984 -0.929808,1.044538 -1.363311,1.699007 -1.077305,1.626434 -1.041755,2.926498 0.1753,6.410717 0.91804,2.62819 0.96484,2.929809 0.992188,6.39444 0.03261,4.130743 -0.129484,3.918464 2.409951,3.156169 z m 34.762309,-4.217337 c 1.61984,-6.600691 1.4701,-9.188628 -0.73075,-12.629143 l -0.84625,-1.322916 0.19627,1.322916 c 0.53931,3.635118 0.0343,6.993631 -1.89466,12.600253 -1.28717,3.741241 -1.28811,3.711831 0.13079,4.093313 2.13193,0.573186 1.94824,0.810619 3.1446,-4.064423 z"
       id="path2"
       clip-path="url(#clipPath31)" /><path
       style="fill:#000000"
       d="m 104.71172,240.64115 c -1.59772,-1.64884 -3.77376,-5.4004 -4.59272,-7.918 -0.897524,-2.7591 -0.997252,-5.43295 -0.394305,-10.57192 l 0.376655,-3.21022 -0.876767,-3.66894 c -0.48222,-2.01792 -0.909472,-3.80111 -0.949451,-3.96265 -0.05618,-0.227 -4.207271,-0.99763 -5.517611,-1.02431 -0.277916,-0.006 -1.51009,3.52709 -2.305363,6.60968 -0.410214,1.59005 -0.506098,2.54454 -0.385393,3.83646 0.498145,5.33165 0.485887,6.43465 -0.08845,7.95849 -0.576117,1.52857 -2.039118,3.46916 -3.005156,3.98616 -0.45866,0.24547 -0.631072,0.20175 -0.999735,-0.25353 -0.374441,-0.46242 -0.403423,-0.76293 -0.181718,-1.88421 0.262497,-1.32759 0.25667,-1.34595 -1.203667,-3.79309 -2.376332,-3.9821 -2.686581,-5.13778 -2.679891,-9.98257 0.0045,-3.29069 0.120501,-4.58409 0.586841,-6.54564 0.319649,-1.34452 0.581179,-2.49496 0.581179,-2.55652 0,-0.0937 -4.121839,-1.74576 -4.355648,-1.74576 -0.2683,0 -1.236876,2.92325 -1.709488,5.15938 -1.056083,4.99679 -2.887009,7.6295 -6.845481,9.84321 -2.021138,1.13028 -8.240008,3.51825 -9.162419,3.51825 -1.877294,0 -1.940129,-0.9784 -0.198176,-3.08572 3.871378,-4.68339 4.325268,-6.20724 3.445797,-11.5686 -0.710827,-4.33329 -0.506295,-6.77445 0.801798,-9.56978 l 0.846064,-1.808 -0.870077,-0.66752 c -0.478543,-0.36713 -1.587663,-1.34937 -2.464711,-2.18276 l -1.594633,-1.51525 -1.293778,0.75561 c -2.350886,1.37299 -5.136054,3.9482 -7.295556,6.74559 -1.171199,1.51715 -2.673565,3.23741 -3.338591,3.82279 -1.556469,1.37006 -3.705787,2.19835 -6.082139,2.3439 -3.141957,0.19245 -3.7719,-0.58534 -1.97826,-2.44254 0.700073,-0.72488 1.257761,-1.70338 1.734681,-3.04362 0.386593,-1.0864 1.054228,-2.63444 1.483634,-3.44009 0.834338,-1.56538 5.448255,-7.11126 8.526454,-10.2487 l 1.86974,-1.90573 -1.148709,-1.66614 c -1.554434,-2.25464 -1.864516,-2.59219 -2.381207,-2.59219 -0.243801,0 -1.326676,0.77003 -2.406389,1.71119 -2.497704,2.17718 -5.03416,3.47576 -7.881625,4.03513 -2.067705,0.40618 -2.549541,0.40443 -7.276041,-0.0265 -7.762319,-0.7078 -11.387415,-1.46405 -14.447711,-3.01404 -1.633525,-0.82736 -2.53882,-2.01268 -1.861057,-2.43673 0.217028,-0.13579 1.050466,-0.32294 1.852083,-0.4159 5.051566,-0.58577 8.852183,-2.0329 11.452625,-4.36072 1.551636,-1.38897 3.999163,-4.3856 5.934842,-7.26634 2.279675,-3.39269 4.17916,-4.97111 7.254056,-6.02792 0.375399,-0.12902 0.391815,-0.31671 0.12955,-1.48119 -0.165176,-0.7334 -0.430548,-1.46369 -0.589715,-1.62285 -0.166179,-0.16618 -1.404178,-0.3015 -2.907674,-0.31782 -2.486816,-0.027 -2.764413,0.0285 -5.528697,1.10521 l -2.910417,1.13364 -3.175,-0.22866 c -1.74625,-0.12575 -3.948906,-0.18396 -4.894791,-0.12934 -4.19639,0.24231 -4.358493,0.22402 -4.440007,-0.50086 -0.05715,-0.50825 0.389744,-1.16449 1.92936,-2.83317 2.564044,-2.77899 4.172449,-3.6159 8.057349,-4.19255 2.467474,-0.36626 3.015996,-0.55374 5.043534,-1.72391 1.772832,-1.02316 2.884508,-1.44951 5.036631,-1.93165 l 2.761674,-0.6187 0.07611,-2.26444 0.07611,-2.26443 -2.192777,-0.87271 c -2.13609,-0.85014 -2.278275,-0.87035 -5.500069,-0.78206 -8.460541,0.23188 -8.727424,0.21686 -10.451041,-0.58808 -1.936303,-0.90427 -3.302521,-2.18895 -4.55758,-4.28559 -1.293453,-2.16078 -1.589182,-2.46819 -3.115337,-3.2383 -0.727604,-0.36716 -1.403906,-0.79436 -1.502893,-0.94934 -0.295563,-0.46273 0.244807,-1.16104 1.139915,-1.47308 1.581414,-0.55128 2.469838,-0.34316 5.810754,1.36124 l 3.241442,1.65364 2.269975,-0.0152 c 1.974751,-0.0133 2.582708,-0.14065 4.674599,-0.97952 4.157195,-1.66708 7.080516,-1.75614 9.948035,-0.30305 0.729299,0.36956 1.384254,0.61368 1.455455,0.54247 0.0712,-0.0712 0.460304,-1.4371 0.864675,-3.03533 l 0.735218,-2.90587 -1.761078,-1.81111 c -1.2887,-1.3253 -2.131425,-2.53343 -3.141769,-4.50402 -1.619692,-3.15907 -3.076557,-4.74389 -5.420419,-5.8965 -1.500482,-0.73788 -1.947639,-0.82244 -5.084742,-0.96162 -1.891771,-0.0839 -4.090638,-0.33165 -4.88637,-0.55047 -1.873538,-0.51523 -3.954527,-1.90981 -5.399859,-3.61874 -1.389146,-1.64249 -1.752313,-2.30375 -1.752313,-3.19065 0,-0.97956 0.895811,-1.09343 3.169353,-0.40287 1.540901,0.46804 2.322895,0.55554 3.940583,0.44092 2.038165,-0.14441 3.182815,-0.50605 7.839022,-2.47671 2.220872,-0.93994 2.559449,-1.00806 5.027084,-1.01131 2.339141,-0.003 2.828383,0.0814 4.220691,0.72894 2.212783,1.02911 4.009313,2.49167 6.091619,4.9592 1.83676,2.17655 4.001608,3.9299 4.350056,3.52318 0.505112,-0.58957 2.667842,-3.78239 2.667842,-3.93851 0,-0.0971 -0.485865,-0.72854 -1.079699,-1.40317 -0.593835,-0.67464 -1.671483,-2.46578 -2.394773,-3.98032 -1.189734,-2.49126 -1.561843,-2.99605 -3.904202,-5.29629 -2.867634,-2.816073 -3.148337,-3.35483 -3.861585,-7.411585 -0.230455,-1.310766 -0.667357,-2.682057 -1.077497,-3.381909 -0.86422,-1.474678 -0.715229,-1.935539 0.625735,-1.935539 3.422732,0 6.818761,2.390407 10.25989,7.221761 1.981698,2.78231 4.288648,5.300792 6.563972,7.165832 l 1.801788,1.4769 2.02329,-1.63102 c 1.112809,-0.89705 2.046978,-1.64267 2.07593,-1.65693 0.02895,-0.0143 -0.373984,-0.55786 -0.895414,-1.208 -0.52143,-0.650148 -1.255995,-1.836929 -1.632366,-2.637293 -0.63486,-1.35005 -0.695415,-1.808924 -0.83797,-6.35 l -0.153659,-4.894792 -1.50643,-3.704166 c -1.752489,-4.309201 -2.161293,-6.167814 -1.913299,-8.698735 0.201516,-2.056584 0.431754,-2.800391 1.06188,-3.430517 0.642937,-0.642937 1.209425,-0.21677 2.385891,1.794895 1.214926,2.077431 3.111853,4.07061 5.884534,6.183124 3.976973,3.030068 5.199039,4.874813 6.166812,9.308988 0.293328,1.343983 0.710135,2.78552 0.926237,3.203416 0.56659,1.095663 1.962433,2.619037 2.399782,2.619037 0.205946,0 1.473534,-0.470636 2.816862,-1.045857 l 2.442416,-1.045857 0.21245,-2.062997 c 0.348471,-3.383836 0.06385,-5.960978 -0.987594,-8.942164 -1.587046,-4.49981 -1.187457,-7.18123 1.507645,-10.116988 1.433432,-1.561429 2.185406,-2.649323 2.425526,-3.509054 0.640504,-2.293266 1.255655,-2.679471 2.251457,-1.413514 0.917984,1.167027 1.403964,3.341766 1.313872,5.879519 -0.199466,5.618675 -0.146891,6.062406 1.022617,8.63087 1.102487,2.421275 2.002882,5.383812 2.294131,7.548299 l 0.161241,1.198299 1.910786,-0.235445 c 1.050932,-0.129495 2.059614,-0.278039 2.241515,-0.330099 0.520677,-0.149017 0.40652,-3.283236 -0.248205,-6.814509 -0.833577,-4.495919 -0.570441,-6.076309 1.871681,-11.241258 2.521077,-5.331929 2.712977,-6.051797 2.869197,-10.762787 0.0724,-2.182812 0.2517,-4.117578 0.39848,-4.299479 0.57226,-0.709194 1.27754,-0.301162 2.80767,1.624346 3.44223,4.331686 5.2836,8.168676 5.84003,12.169247 0.1571,1.129453 0.28563,3.711805 0.28563,5.73856 0,3.406991 0.0614,3.869653 0.81332,6.132417 0.58945,1.773755 0.85408,3.157473 0.96141,5.027097 0.12265,2.136373 0.22159,2.580188 0.57574,2.582599 0.23521,0.0016 0.85627,0.07381 1.38013,0.160467 l 0.95248,0.157555 1.22338,-3.533905 c 2.09324,-6.046632 2.25045,-7.024649 2.03522,-12.662029 -0.0804,-2.104811 -0.008,-2.70715 0.4458,-3.704166 0.59513,-1.307917 1.93901,-2.79324 2.76422,-3.055152 0.91395,-0.290077 1.50118,0.515204 1.35051,1.851982 -0.1157,1.026467 0.0215,1.420896 1.2156,3.495208 2.08964,3.629934 2.25931,4.231584 2.26359,8.026712 0.003,3.05305 -0.0819,3.62884 -1.10967,7.490152 -0.61237,2.300573 -1.1134,4.270214 -1.1134,4.376979 0,0.106766 0.65153,0.415583 1.44785,0.68626 l 1.44786,0.492142 1.17899,-1.086757 c 0.64845,-0.597716 2.37446,-1.875054 3.83558,-2.83853 4.11295,-2.712112 5.0543,-4.411794 5.0543,-9.125945 0,-3.050572 0.66095,-5.921529 1.89724,-8.241048 1.44251,-2.706425 2.62503,-2.968834 3.00898,-0.667709 0.31201,1.870037 1.4245,4.640711 3.43278,8.549403 2.2077,4.296826 3.0926,7.368884 3.11555,10.816094 0.0243,3.643713 -1.50125,7.422954 -4.20016,10.405351 -0.78846,0.871274 -1.43355,1.684464 -1.43355,1.807094 1e-5,0.12264 0.44082,0.58016 0.97959,1.01672 2.04342,1.65578 1.77586,1.65568 3.56276,0.001 2.00123,-1.85279 3.00037,-2.48965 5.61094,-3.576431 2.70846,-1.127533 3.31465,-1.682361 5.21266,-4.770951 1.93882,-3.155007 3.28315,-4.588414 5.09404,-5.431563 1.40063,-0.652138 3.19399,-0.84813 3.48291,-0.380641 0.0889,0.143843 -0.0827,0.813822 -0.38126,1.488842 -0.29859,0.675019 -0.54525,1.777719 -0.54814,2.450445 -0.0226,5.274933 -1.53481,8.250749 -6.12628,12.055629 -5.4155,4.48773 -6.382,5.33607 -6.88743,6.04541 l -0.52609,0.73832 0.68999,0.84918 c 0.37949,0.46705 1.18337,1.56356 1.7864,2.43668 0.60302,0.87313 1.14221,1.64181 1.19819,1.70819 0.32427,0.38453 2.21236,-1.18041 3.55989,-2.95061 0.85785,-1.12692 1.94406,-2.41691 2.4138,-2.86664 2.01306,-1.92733 5.76923,-3.07932 9.05615,-2.77747 3.68524,0.33843 12.28431,2.48455 16.55665,4.13213 1.91081,0.73689 3.95501,2.18052 3.94451,2.78564 -0.0136,0.78244 -0.59019,0.98805 -3.34506,1.19278 -3.6033,0.26778 -5.42282,0.74707 -8.13274,2.14228 -3.05456,1.57265 -5.5639,4.16915 -7.96503,8.24166 -2.35595,3.9959 -3.68483,5.25409 -6.38982,6.04991 -1.14025,0.33547 -1.94455,0.71598 -1.94455,0.91996 0,0.19133 0.19464,1.04796 0.43254,1.90363 l 0.43254,1.55576 3.01828,0.32513 c 3.26641,0.35185 3.31566,0.34765 7.62601,-0.64973 1.9632,-0.45427 3.68631,-0.67423 5.29439,-0.67585 2.13963,-0.002 2.60062,-0.097 4.49791,-0.9252 2.15184,-0.93935 3.52587,-1.13383 4.74256,-0.67124 0.94518,0.35935 0.84809,0.96523 -0.33454,2.08763 -0.55727,0.5289 -1.3956,1.57499 -1.86296,2.32466 -1.07856,1.73007 -3.03386,3.56448 -4.69855,4.40805 -2.56065,1.29757 -9.52721,2.78981 -15.11329,3.23727 l -2.18281,0.17485 v 3.13184 c 0,2.22 0.0963,3.19141 0.33073,3.33641 0.1819,0.1125 3.00964,0.27801 6.28386,0.3678 5.22545,0.14329 6.16159,0.23587 7.65863,0.75738 2.58963,0.90214 4.29055,2.17805 6.25176,4.68966 0.96103,1.23074 2.204,2.53992 2.76215,2.90929 1.17265,0.77602 1.42667,1.25512 1.04428,1.96962 -0.22981,0.42942 -0.56705,0.51 -2.13421,0.51 -1.52601,0 -2.48938,-0.21805 -5.3485,-1.21062 -4.5181,-1.5685 -6.39665,-1.73293 -10.38947,-0.90938 -2.29337,0.47302 -3.38191,0.56388 -5.29141,0.44166 l -2.40405,-0.15387 -0.71912,2.91615 c -0.39551,1.60389 -0.78027,3.07551 -0.85501,3.27028 -0.09,0.23455 0.51786,0.67131 1.80026,1.29351 1.34576,0.65294 2.90429,1.79452 5.11114,3.74375 4.20633,3.71531 5.29678,4.23905 9.92188,4.76547 4.18192,0.47598 5.50137,0.86207 7.59006,2.22099 2.66041,1.73088 5.17327,4.87548 4.7589,5.95531 -0.20627,0.53753 -1.24274,0.53824 -2.50173,0.002 -1.43963,-0.6135 -3.69571,-0.87695 -5.31622,-0.62079 -0.78707,0.12442 -2.90836,0.92607 -4.7612,1.7993 -4.08224,1.92391 -4.87505,2.14777 -7.6133,2.14964 -3.79193,0.003 -6.26075,-1.11414 -10.30455,-4.66112 -1.65896,-1.45514 -4.38496,-2.91366 -4.87715,-2.60947 -0.15293,0.0945 -0.92659,1.14053 -1.71925,2.32448 l -1.4412,2.15264 0.85584,0.90048 c 0.47071,0.49526 2.16553,1.88828 3.76626,3.0956 5.14315,3.87911 6.10008,5.30534 6.53386,9.73821 0.3643,3.72286 0.34142,3.64812 1.5299,4.9983 1.62978,1.85153 1.49441,2.1126 -0.98616,1.90199 -1.12779,-0.0958 -2.54769,-0.38776 -3.15533,-0.64891 -1.6478,-0.70818 -3.43516,-2.50685 -4.7413,-4.77132 -0.6398,-1.10922 -1.3721,-2.20573 -1.62733,-2.43669 -0.25523,-0.23096 -1.65468,-1.00861 -3.10989,-1.7281 -1.45521,-0.7195 -3.26741,-1.79957 -4.02712,-2.40015 -0.7597,-0.60058 -1.47407,-1.08854 -1.5875,-1.08435 -0.11342,0.004 -1.15472,0.88012 -2.31399,1.94651 l -2.10778,1.9389 0.51316,1.13798 c 0.77299,1.71419 1.81651,3.02883 3.36512,4.23939 2.34525,1.83332 4.19329,3.75018 4.82929,5.00916 1.93246,3.82533 1.36594,10.21416 -1.42012,16.01524 -1.387,2.88796 -2.04066,3.66059 -2.98393,3.52699 -0.57379,-0.0813 -0.63811,-0.26861 -0.91576,-2.6675 -0.59584,-5.14809 -2.01488,-7.34393 -7.30934,-11.31053 -4.08194,-3.0582 -6.01244,-4.92026 -7.26912,-7.01146 -0.5247,-0.87313 -0.97618,-1.61965 -1.00331,-1.65895 -0.0271,-0.0393 -0.9895,0.32447 -2.13862,0.80838 -1.62288,0.68341 -2.08391,0.9947 -2.06508,1.39436 0.10671,2.26578 0.75795,6.44231 1.27666,8.18746 1.47485,4.962 1.19641,6.28959 -2.22694,10.61795 -1.14332,1.44558 -1.19588,1.59042 -1.32291,3.6458 -0.11793,1.9079 -0.19146,2.14888 -0.67697,2.21833 -0.83594,0.11957 -1.90566,-0.89383 -2.7875,-2.64075 -1.05127,-2.08255 -1.2001,-3.57635 -0.65297,-6.55356 0.5186,-2.82191 0.44832,-3.29864 -0.94316,-6.39794 -0.56428,-1.25684 -1.21392,-3.16184 -1.44364,-4.23333 -0.22973,-1.07149 -0.45696,-2.07901 -0.50496,-2.23892 -0.0613,-0.20414 -0.78398,-0.16157 -2.42601,0.14287 l -2.33875,0.43363 0.0859,1.8415 c 0.0472,1.01283 0.25558,2.65296 0.46302,3.64474 0.86312,4.12667 0.3794,6.17979 -2.44328,10.3703 -3.32818,4.94095 -4.10031,7.12659 -4.02725,11.39971 0.0276,1.61467 -0.0347,3.07318 -0.13855,3.24115 -0.36904,0.59713 -1.37796,0.30031 -2.33446,-0.68679 z m -0.0993,-16.55375 c 0.66986,-1.8649 1.21793,-3.86045 1.21793,-4.43457 0,-0.57412 -0.24859,-2.14392 -0.55243,-3.48844 -1.14287,-5.05748 0.0285,-8.611 2.41708,-7.33266 0.47823,0.25594 0.54302,0.45915 0.406,1.27338 -0.48537,2.88423 -0.46719,3.99218 0.10545,6.42718 0.72213,3.07067 0.62995,3.90373 -0.95393,8.6203 -0.65842,1.96066 -1.14727,3.61467 -1.08635,3.67559 0.0609,0.0609 0.47723,-0.45605 0.92513,-1.14881 0.44791,-0.69277 1.4731,-2.19624 2.2782,-3.34104 2.06716,-2.93935 2.2581,-3.95874 1.49626,-7.98809 -0.39209,-2.07373 -0.55715,-3.78341 -0.49126,-5.0883 0.1226,-2.4278 0.47408,-2.78415 3.19464,-3.23885 5.20179,-0.8694 11.31099,-2.67459 16.14081,-4.7694 1.32297,-0.5738 2.56175,-1.04327 2.75284,-1.04327 0.19109,0 0.6935,0.68461 1.11645,1.52135 1.17736,2.32918 3.02656,4.67815 4.58098,5.81906 0.77248,0.56698 2.41653,1.77042 3.65346,2.67431 2.67277,1.95313 5.55141,4.72097 6.24023,6.00003 0.59304,1.10121 0.97674,1.19895 0.74974,0.19098 -0.48239,-2.14194 -0.70988,-2.73112 -1.46556,-3.79569 -1.24365,-1.752 -2.49161,-2.99708 -5.19919,-5.18721 -2.7047,-2.18779 -3.62304,-3.35468 -4.97508,-6.32153 -1.01678,-2.23119 -1.10289,-2.89146 -0.46851,-3.59245 0.93641,-1.03472 2.25833,-0.2913 2.71633,1.52758 0.68061,2.70295 1.82893,4.22584 5.13987,6.81647 2.07406,1.62284 4.14112,3.65359 5.42256,5.3273 l 0.60771,0.79375 -0.13581,-1.36843 c -0.23087,-2.32626 -1.1835,-3.77345 -4.23557,-6.43442 -1.51013,-1.31663 -3.04356,-2.84398 -3.40762,-3.3941 -0.98504,-1.48849 -1.95714,-3.50371 -2.17422,-4.50725 -0.18323,-0.84706 -0.10931,-0.96113 1.62105,-2.50146 0.99716,-0.88766 3.36598,-3.16717 5.26402,-5.06559 2.7919,-2.79244 3.94268,-4.19205 6.02539,-7.3283 1.41591,-2.13216 2.72809,-3.93563 2.91596,-4.00772 0.63026,-0.24185 3.16974,0.37842 4.65602,1.13724 0.80986,0.41347 2.4686,1.59973 3.6861,2.63612 1.2175,1.0364 2.76531,2.16307 3.43958,2.50372 2.50141,1.26374 5.29963,1.44458 7.90669,0.51098 1.34549,-0.48182 1.45823,-0.88808 0.24646,-0.88808 -2.39905,0 -5.48912,-1.49618 -9.57303,-4.63518 -3.17006,-2.43659 -4.4436,-3.20615 -6.5849,-3.97908 -1.383,-0.49921 -1.62963,-0.68743 -1.70316,-1.29981 -0.12817,-1.06751 0.66067,-1.81091 1.73639,-1.63635 1.44685,0.23479 4.0411,1.66886 6.8195,3.76972 5.73793,4.33868 7.16747,4.88159 12.75456,4.84391 2.15102,-0.0145 4.2086,-0.11686 4.57241,-0.22745 l 0.66145,-0.20109 -0.68479,-0.27888 c -0.37663,-0.15339 -2.19318,-0.47333 -4.03677,-0.71099 -1.84359,-0.23765 -3.82173,-0.59783 -4.39587,-0.8004 -1.57792,-0.55672 -3.52847,-1.89852 -6.88986,-4.73956 -2.76497,-2.33696 -3.90318,-3.04447 -7.20989,-4.4817 -1.14391,-0.49719 -1.24889,-1.05362 -0.61055,-3.23605 1.82309,-6.23295 2.53193,-10.62294 2.7099,-16.78292 0.16074,-5.56358 -0.41605,-11.23636 -1.62695,-16.00122 -0.36896,-1.45188 -0.67084,-2.89194 -0.67084,-3.20014 0,-0.8563 0.73751,-1.32121 2.91042,-1.83466 1.0914,-0.25789 2.28203,-0.62075 2.64583,-0.80636 1.05356,-0.53752 2.2443,-1.95698 3.31728,-3.95449 1.93437,-3.60113 4.79062,-6.95788 7.60017,-8.93197 0.8386,-0.58923 1.47711,-1.11896 1.4189,-1.17717 -0.18697,-0.18697 -3.3752,1.21269 -4.70253,2.06443 -1.65233,1.0603 -3.07478,2.65592 -5.50555,6.17582 -1.07609,1.55823 -2.4322,3.24032 -3.01359,3.73797 -1.16583,0.9979 -3.46784,1.96737 -4.67155,1.96737 -0.73084,0 -1.3223,-0.57934 -1.3223,-1.29521 0,-0.52094 1.10829,-1.29793 2.65663,-1.86248 1.70802,-0.62278 2.39592,-1.32456 4.578,-4.67035 2.56979,-3.94027 6.13293,-7.04335 9.61978,-8.37769 0.81622,-0.31235 1.33598,-0.61726 1.15501,-0.67759 -0.71209,-0.23736 -3.69693,0.56819 -5.70629,1.54003 -2.56271,1.23947 -4.2993,2.73067 -6.57713,5.64777 -1.68737,2.16092 -4.92693,4.93972 -6.20811,5.32514 -1.38432,0.41644 -2.43124,-0.45536 -2.0373,-1.69652 0.0891,-0.28086 0.8413,-0.89346 1.67147,-1.36133 2.33262,-1.31462 3.1631,-2.04118 4.818,-4.21515 2.05618,-2.70112 4.01779,-4.44285 6.51865,-5.78798 l 2.079,-1.11822 -2.38125,0.11235 c -3.69566,0.17437 -4.83472,0.82363 -7.70057,4.38934 -3.24381,4.03598 -5.8199,5.45226 -7.14396,3.92758 -0.28434,-0.32742 -0.91987,-1.19062 -1.41229,-1.91823 -2.84576,-4.20489 -6.83988,-8.61602 -11.99086,-13.24278 -1.23556,-1.10981 -1.78253,-1.79095 -1.78253,-2.21975 0,-0.41956 0.68554,-1.30921 2.13022,-2.764514 2.45209,-2.470115 3.42585,-4.239647 4.07548,-7.40603 0.23529,-1.146838 0.37719,-2.135769 0.31534,-2.197625 -0.0619,-0.06186 -0.32975,0.578322 -0.59531,1.422618 -0.74671,2.373993 -2.81507,5.198379 -5.52885,7.549787 -1.30969,1.134802 -2.65839,2.204304 -2.99711,2.376684 -0.8108,0.4126 -1.47208,0.003 -1.5887,-0.984666 -0.0741,-0.627258 0.17267,-0.976347 1.57083,-2.222272 2.96505,-2.64221 4.09316,-3.862805 4.9252,-5.328992 1.29389,-2.280043 2.47896,-5.958459 2.59518,-8.055375 0.095,-1.714556 0.0863,-1.751926 -0.11706,-0.503266 -0.77489,4.757275 -3.6984,8.864813 -7.84125,11.016937 -1.06053,0.550928 -2.33816,1.488514 -2.9611,2.172998 -1.20972,1.329241 -2.06446,1.538831 -2.82925,0.693751 -0.98058,-1.083531 0.14959,-2.525595 3.68701,-4.704527 4.3551,-2.682593 5.72372,-4.19657 6.62351,-7.326973 0.53587,-1.864302 0.43204,-5.594407 -0.19589,-7.037461 l -0.40296,-0.926042 -0.16693,1.322917 c -0.87901,6.966518 -1.74696,8.478517 -6.78377,11.817589 -1.23693,0.819999 -3.06696,2.240875 -4.06674,3.157501 l -1.81777,1.666592 -1.22493,-0.4715 c -4.14639,-1.596022 -7.87361,-2.688326 -11.92794,-3.495619 -2.53967,-0.505697 -4.68279,-0.984677 -4.7625,-1.0644 -0.0797,-0.07972 -0.15073,-1.414937 -0.15783,-2.967141 -0.0114,-2.488074 -0.11877,-3.135425 -0.90708,-5.468022 -0.86681,-2.564866 -0.89647,-2.791607 -0.96921,-7.409347 -0.0477,-3.02629 -0.22606,-5.481396 -0.48912,-6.731966 -0.22774,-1.082649 -0.44913,-2.003501 -0.49197,-2.046339 -0.0428,-0.04284 -0.22054,1.149377 -0.3949,2.649368 -0.17436,1.49999 -0.61235,3.94693 -0.97331,5.437645 -0.93897,3.87784 -0.87526,4.968181 0.53434,9.144802 1.5574,4.614556 1.55763,6.426231 9.7e-4,7.446197 -0.55247,0.36199 -0.81073,0.39055 -1.34215,0.148418 -0.899,-0.409612 -1.0466,-0.946842 -0.66702,-2.427875 0.37043,-1.445332 0.21239,-2.283498 -1.07129,-5.681737 -1.21989,-3.229355 -1.26254,-5.053299 -0.21964,-9.392708 0.625,-2.600516 0.88373,-4.363352 0.95143,-6.482292 l 0.093,-2.910416 -0.40941,1.852083 c -0.22518,1.018646 -1.06951,3.221302 -1.87629,4.894792 -0.80679,1.673489 -1.69282,3.686425 -1.96896,4.473191 -0.62443,1.779071 -0.65075,4.401005 -0.0685,6.821328 0.23848,0.991296 0.44799,2.862388 0.46558,4.157982 0.0292,2.15025 0.0823,2.378086 0.60929,2.613232 0.89458,0.399171 0.99505,1.038695 0.26222,1.669048 -0.52335,0.450169 -1.13415,0.584014 -3.257926,0.713915 -5.081336,0.310802 -12.050868,2.191708 -17.92901,4.8386 -3.633731,1.636248 -3.363123,1.68413 -5.500478,-0.97327 C 73.178654,92.446453 72.675142,91.358604 71.964221,88.309659 71.345318,85.655355 70.46263,83.85655 69.159038,82.59306 l -0.894127,-0.866622 0.559951,1.570635 c 0.41834,1.173423 0.608409,2.546502 0.751559,5.429355 0.237543,4.783783 0.7196,6.069394 3.009283,8.025532 0.822048,0.702297 1.494632,1.474073 1.494632,1.715059 0,0.876645 -0.7833,1.614231 -1.714277,1.614231 -0.742527,0 -1.093849,-0.230845 -2.114005,-1.389062 -0.672916,-0.763985 -1.650531,-2.247766 -2.172478,-3.297291 -0.922413,-1.854778 -0.954577,-2.022031 -1.148299,-5.971072 -0.16802,-3.425121 -0.303091,-4.319795 -0.860517,-5.699843 -0.772133,-1.91161 -2.899908,-5.286154 -3.049723,-4.836709 -0.05656,0.169669 0.222148,1.108426 0.619343,2.086129 1.386698,3.413384 1.496286,4.003559 1.68114,9.053682 0.16615,4.539138 0.230293,5.005383 0.882799,6.416845 0.386998,0.837129 1.305387,2.158321 2.040866,2.935981 0.735479,0.77766 1.337234,1.65105 1.337234,1.94087 0,0.34773 -0.742374,1.09888 -2.182812,2.20861 -4.294604,3.3086 -8.923933,8.36124 -12.407491,13.54204 -1.189782,1.76946 -1.704867,2.3244 -2.157437,2.3244 -1.294637,0 -3.928457,-1.95206 -6.86735,-5.08976 -3.720138,-3.97179 -4.798437,-4.56754 -8.267201,-4.56751 -1.665802,2e-5 -2.605382,0.12437 -3.127236,0.4139 l -0.745986,0.41388 1.769154,0.32598 c 3.187466,0.58732 5.140698,1.8088 8.84606,5.53204 3.448303,3.46495 4.50533,4.29175 5.488887,4.2934 0.849636,0.001 1.480754,1.06434 1.149418,1.93581 -0.390866,1.02806 -1.374967,1.57963 -2.234961,1.25266 -1.114429,-0.4237 -3.941253,-2.81564 -5.592949,-4.73251 -3.730829,-4.3298 -6.591886,-5.83141 -11.299046,-5.93022 -2.255518,-0.0473 -5.900613,0.56402 -5.5361,0.92853 0.134478,0.13448 1.65655,0.33779 3.382382,0.4518 3.45056,0.22795 5.408492,0.78181 7.493534,2.11977 2.078539,1.3338 4.033629,3.61377 5.446894,6.35202 1.217904,2.35973 2.375458,3.79207 4.551095,5.63146 0.472942,0.39985 0.859895,0.94323 0.859895,1.2075 0,0.26428 -0.30167,1.48375 -0.670379,2.70994 -2.877756,9.57037 -3.228151,20.10804 -0.996477,29.96769 0.503148,2.22293 0.631815,3.25422 0.443294,3.55308 -0.14609,0.2316 -1.035139,0.68067 -1.975666,0.99794 -3.256548,1.09852 -4.259509,1.95078 -6.851647,5.82216 -1.964869,2.93456 -4.876309,6.56233 -6.122819,7.6293 -0.576611,0.49356 -1.787088,1.29661 -2.689949,1.78455 -1.330201,0.7189 -1.527353,0.90397 -1.039419,0.97576 0.759338,0.11172 3.816086,-0.87183 5.245104,-1.68769 1.467464,-0.8378 3.761545,-3.36764 5.707571,-6.29412 2.081026,-3.1295 3.690847,-4.79114 5.569405,-5.74866 1.939131,-0.98841 3.275393,-1.02826 3.693708,-0.11016 0.442352,0.97086 -0.05594,1.88677 -1.155675,2.12422 -2.268173,0.48973 -3.230213,1.34369 -5.79788,5.14647 -1.994977,2.95462 -4.607272,5.81034 -6.452514,7.05377 -1.646269,1.10936 -1.400167,1.13176 0.731618,0.0666 2.11775,-1.05815 3.982486,-2.46149 6.910787,-5.20084 2.822646,-2.64051 4.159084,-3.46761 5.944694,-3.67909 1.688137,-0.19994 2.681244,0.3423 2.681244,1.46396 0,0.83904 -0.808301,1.35929 -2.111891,1.35929 -1.300668,0 -1.96384,0.40861 -4.879271,3.00632 -1.552299,1.38313 -3.735948,3.05847 -4.852552,3.72298 -2.207036,1.31344 -2.085136,1.43079 0.811276,0.78095 2.681764,-0.60168 4.292027,-1.42906 6.413449,-3.29534 2.22658,-1.95878 3.797989,-2.74401 5.076252,-2.53657 1.213602,0.19694 1.468257,0.43893 3.249355,3.08781 3.17692,4.72475 8.212003,10.26968 12.102236,13.32769 1.055027,0.82932 1.91823,1.68845 1.91823,1.90917 0,0.22072 -0.499732,1.41923 -1.110516,2.66335 -0.988515,2.01353 -1.12256,2.51395 -1.220151,4.55516 -0.07396,1.54687 0.04127,3.02278 0.354074,4.53528 0.512034,2.47582 0.636984,5.00125 0.306309,6.19097 -0.186693,0.67169 -0.162421,0.73011 0.183938,0.44266 0.668923,-0.55516 1.190583,-2.6492 1.462355,-5.87016 0.320814,-3.80218 0.831266,-5.22706 2.779458,-7.75854 0.783414,-1.01798 0.785263,-1.0277 0.111416,-0.58618 -0.565752,0.37069 -0.805321,0.39425 -1.37409,0.1351 -0.378879,-0.17263 -0.756826,-0.52798 -0.839882,-0.78966 -0.201653,-0.63536 0.534087,-2.01094 1.186276,-2.21794 1.021139,-0.3241 2.366725,0.97635 2.001969,1.93481 -0.13494,0.35458 -0.102235,0.37673 0.164835,0.11162 0.482984,-0.47944 1.11704,-0.40724 1.911452,0.21764 1.009416,0.79401 0.868515,1.42212 -0.66245,2.95308 -1.883719,1.88372 -2.270938,2.91024 -2.592753,6.87335 -0.174878,2.15361 -0.459362,3.81647 -0.801365,4.68414 -0.29163,0.73988 -0.437075,1.34523 -0.323211,1.34523 0.349525,0 2.083366,-1.93502 2.530714,-2.82435 0.232386,-0.46198 0.738667,-2.18821 1.125071,-3.83606 0.778941,-3.32185 1.3286,-4.76668 2.524136,-6.63491 0.963269,-1.50527 1.398646,-1.56736 3.414075,-0.48692 4.216483,2.26039 13.032794,4.4229 20.089177,4.92756 2.67802,0.19153 3.43958,0.53842 3.43958,1.56673 0,0.82664 -0.50418,1.20253 -1.61293,1.20253 h -0.97793 l 0.67575,2.4474 c 0.71826,2.60137 0.81561,4.89565 0.56413,13.29531 -0.0811,2.7078 -0.0195,3.58031 0.28953,4.10104 0.3754,0.63262 0.40014,0.56917 0.56739,-1.45521 0.12594,-1.52435 0.51569,-3.0655 1.3928,-5.50739 z m -3.54457,-18.07581 c -18.412501,-1.36302 -34.045676,-10.24882 -43.910612,-24.95854 -3.474218,-5.18044 -5.231246,-8.89402 -7.141693,-15.09437 -1.788114,-5.80332 -2.255796,-9.21971 -2.2451,-16.40035 0.01015,-6.81459 0.278902,-9.07908 1.723117,-14.51896 1.468017,-5.52953 3.825249,-10.85131 6.862756,-15.49363 2.670258,-4.08104 3.953313,-5.69774 7.131923,-8.98653 9.167879,-9.48568 20.736449,-15.485643 33.24205,-17.240766 3.819059,-0.535993 11.377379,-0.606287 14.920889,-0.138766 22.02997,2.906569 39.99649,17.643972 46.99034,38.544772 2.51481,7.51543 3.41989,17.22543 2.35775,25.29481 -2.48988,18.9162 -13.99714,34.97879 -30.95955,43.21538 -5.47718,2.6596 -11.04023,4.34612 -17.39797,5.27444 -2.93441,0.42847 -9.01043,0.69227 -11.5739,0.50251 z m 8.28884,-2.76104 c 15.40359,-1.35252 28.58511,-8.32717 38.03235,-20.12378 5.72982,-7.15473 9.57796,-16.19805 10.99798,-25.84575 0.58175,-3.95245 0.58083,-11.75602 -0.002,-15.54973 -1.20358,-7.83647 -4.18167,-15.70805 -8.30013,-21.93858 -7.39817,-11.19219 -19.12478,-19.51022 -32.08387,-22.758064 -4.33352,-1.086077 -7.98583,-1.514027 -13.09688,-1.534593 -5.589864,-0.02249 -8.670556,0.328339 -13.444079,1.531025 -15.462904,3.895862 -28.540536,14.453442 -35.732722,28.847052 -2.678074,5.35958 -4.202736,10.27585 -5.062442,16.32384 -0.507465,3.56998 -0.506189,10.99585 0.0026,14.87677 1.965503,14.99371 10.526755,28.78289 23.015858,37.07049 10.593233,7.02953 23.056065,10.20918 35.673219,9.10132 z m -8.15655,-26.71341 c -7.643151,-0.85756 -14.401716,-3.82562 -19.294471,-8.47326 -1.521392,-1.44517 -2.00449,-2.07451 -2.00449,-2.61127 0,-1.81308 1.539204,-1.81565 3.317238,-0.006 1.464255,1.49068 5.043962,4.02766 7.266096,5.14957 4.928751,2.48841 11.748747,3.68419 17.479097,3.06468 7.03352,-0.76041 13.74426,-3.68171 18.14136,-7.89727 1.81512,-1.74018 2.25837,-1.91141 3.21442,-1.24177 1.397,0.9785 0.47802,2.33582 -3.65749,5.40211 -6.60098,4.89433 -16.33198,7.52491 -24.46176,6.61274 z m -1.374062,-16.89366 c -1.640887,-0.20914 -2.726982,-1.07641 -2.726982,-2.17755 0,-0.40227 0.715339,-2.13769 1.589643,-3.85648 2.374451,-4.66793 2.730151,-6.27137 2.760291,-12.44298 0.0265,-5.43035 0.1195,-5.82838 1.2928,-5.5339 0.92203,0.23141 1.25986,1.36728 1.42691,4.79764 0.2874,5.90147 -1.064,11.45577 -3.74567,15.39486 l -0.687127,1.0093 0.996677,0.18319 c 1.52861,0.28096 8.27273,0.25133 8.27273,-0.0363 0,-0.13752 -0.40412,-1.06025 -0.89805,-2.05052 -1.77276,-3.55422 -2.54367,-6.93205 -2.53694,-11.1159 0.007,-4.61639 0.94822,-8.0148 2.21876,-8.0148 1.21053,0 1.34017,0.54837 0.82413,3.48614 -0.35449,2.01814 -0.43484,3.46412 -0.32667,5.879 0.17063,3.80902 0.75715,6.07239 2.4439,9.43091 1.37232,2.73246 1.46907,3.599 0.50322,4.50731 -0.66523,0.62561 -0.79742,0.64234 -5.35781,0.67834 -2.57166,0.0203 -5.29408,-0.0419 -6.049812,-0.13822 z M 81.616042,139.13545 c -0.439269,-0.1914 -1.177536,-0.77951 -1.640596,-1.3069 -1.410703,-1.6067 -1.479882,-3.90663 -0.164524,-5.46985 0.965542,-1.14748 1.963288,-1.58578 3.609856,-1.58578 1.656449,0 2.842734,0.65589 3.839698,2.12296 0.823535,1.21186 0.728618,3.43023 -0.202731,4.73819 -1.133906,1.59243 -3.643612,2.28486 -5.441703,1.50138 z M 124.2267,138.9159 c -3.0301,-1.76069 -3.23419,-5.64046 -0.39554,-7.51899 3.67391,-2.43128 8.40688,1.31827 6.65712,5.27389 -1.10471,2.49737 -4.02528,3.54455 -6.26158,2.2451 z m -50.622614,-5.55007 c -0.509731,-0.50973 -0.371085,-1.34686 0.431813,-2.60726 1.05809,-1.661 2.735909,-3.08433 4.774293,-4.05013 1.633934,-0.77417 1.949241,-0.83031 4.662852,-0.83031 2.725733,0 3.023889,0.0538 4.698611,0.84705 3.075615,1.45689 6.163858,4.90127 5.502494,6.13704 -0.588127,1.09892 -1.817903,0.87174 -2.508321,-0.46338 -0.210367,-0.40681 -0.88192,-1.19086 -1.49234,-1.74234 -2.831876,-2.55843 -6.495007,-3.13754 -9.772319,-1.54491 -1.957832,0.95141 -2.33223,1.25484 -3.927241,3.18277 -1.148098,1.38774 -1.771649,1.66967 -2.369842,1.07147 z m 43.272604,0.0317 c -0.78843,-0.45922 -0.55458,-1.64076 0.64525,-3.26025 4.32101,-5.83231 13.73222,-5.80828 18.02968,0.046 1.2289,1.6741 1.41782,2.45874 0.73975,3.07239 -0.69752,0.63124 -1.45241,0.36669 -2.14326,-0.75112 -0.81168,-1.31334 -2.52738,-2.75957 -4.20894,-3.54791 -1.20722,-0.56596 -1.86027,-0.69435 -3.47133,-0.68247 -3.11539,0.023 -5.41223,1.25186 -7.42035,3.97015 -1.08943,1.47471 -1.36626,1.62177 -2.1708,1.15317 z m -29.577355,89.26972 c -0.462337,-2.99558 -0.204652,-5.20286 1.070799,-9.17229 0.60083,-1.86989 1.033835,-3.55246 0.962234,-3.73905 -0.11022,-0.28723 -2.398563,-1.04322 -3.203769,-1.05842 -0.424835,-0.008 -1.191144,3.79116 -1.359899,6.74206 -0.197228,3.44879 0.265074,5.85161 1.673022,8.69556 0.827087,1.67065 1.016651,1.90565 1.095917,1.35861 0.05271,-0.3638 -0.05452,-1.63572 -0.238304,-2.82647 z m 38.159425,0.075 c 1.09304,-1.66629 1.12696,-3.10428 0.15354,-6.50899 -0.39525,-1.38244 -0.83445,-3.688 -0.97601,-5.12344 -0.14155,-1.43545 -0.308,-2.66055 -0.3699,-2.72244 -0.22548,-0.22549 -3.41451,0.81445 -3.54567,1.15623 -0.24337,0.63422 0.72556,3.82111 1.92963,6.3467 1.67929,3.52239 1.8398,4.48467 1.17858,7.06601 -0.29485,1.15106 -0.5355,2.22262 -0.53478,2.38125 0.002,0.36139 1.0482,-0.89341 2.16461,-2.59532 z M 46.590688,203.45735 c 0.494463,-0.33283 1.93253,-1.85088 3.195705,-3.37344 2.768112,-3.33652 5.309585,-5.75705 7.398468,-7.04638 0.852303,-0.52607 1.546882,-1.0884 1.543509,-1.24962 -0.0034,-0.16121 -0.554092,-0.86754 -1.223819,-1.56962 l -1.217685,-1.2765 -0.92281,0.87963 c -0.83455,0.79549 -4.437759,4.95241 -7.033561,8.1144 -0.556214,0.67754 -1.478948,2.17809 -2.05052,3.33456 -1.44232,2.91826 -1.384135,3.3278 0.310713,2.18697 z M 162.65336,200.544 c -0.21961,-3.52014 -0.8362,-4.38222 -5.62615,-7.86612 -1.45521,-1.05842 -3.0438,-2.29339 -3.53021,-2.74437 l -0.88438,-0.81997 -1.16614,1.31567 c -0.64138,0.72362 -1.16614,1.46204 -1.16614,1.64094 0,0.45841 1.82516,1.65707 4.7625,3.12773 3.34411,1.67433 4.31171,2.48644 5.46482,4.58664 0.89523,1.63052 1.86305,2.95506 2.15922,2.95506 0.0679,0 0.0618,-0.98801 -0.0135,-2.19558 z M 33.767511,159.66946 c 2.303432,-1.15731 3.84841,-1.50305 6.544165,-1.46447 l 2.611548,0.0374 -0.183568,-1.89462 c -0.100962,-1.04205 -0.264128,-1.96918 -0.36259,-2.06029 -0.09846,-0.0911 -0.952928,-0.004 -1.898813,0.19272 -1.610608,0.33565 -2.815411,0.86748 -6.759054,2.98365 -1.281359,0.68759 -2.018451,0.88876 -3.704167,1.01098 -1.95447,0.14171 -3.819148,0.75181 -4.204775,1.37577 -0.08531,0.13803 0.747197,0.32212 1.900278,0.4202 1.128651,0.096 2.165777,0.20365 2.304725,0.23922 0.557746,0.14277 2.790706,-0.35743 3.752251,-0.84054 z m 150.228399,-0.70998 c -0.23533,-0.35916 -0.95321,-1.00099 -1.5953,-1.42628 -1.93987,-1.28493 -3.81092,-1.59698 -10.20543,-1.7021 l -5.73411,-0.0942 -0.18073,1.55718 c -0.0994,0.85645 -0.10852,1.6294 -0.0203,1.71765 0.42623,0.42623 3.20463,0.34789 5.82628,-0.16428 3.59359,-0.70205 5.96141,-0.67863 9.15024,0.0905 3.3373,0.80497 3.2723,0.80446 2.75932,0.0216 z M 42.738124,142.02199 c 0.0997,-0.79801 0.120971,-1.60809 0.04726,-1.80018 -0.07371,-0.19209 -0.889169,-0.75174 -1.812127,-1.24367 -2.426651,-1.29339 -3.876259,-1.2287 -8.12,0.36236 -2.784574,1.04399 -3.540937,1.222 -5.192256,1.222 -1.063086,0 -2.439073,-0.17859 -3.057748,-0.39687 -1.37851,-0.48637 -1.60833,-0.49444 -1.437972,-0.0505 0.07311,0.19051 0.808604,0.75605 1.634439,1.25677 1.667224,1.01085 1.098169,0.96725 9.989991,0.76541 3.158727,-0.0717 3.590814,-0.022 5.291667,0.60907 1.018646,0.37792 1.992344,0.696 2.163774,0.70683 0.183494,0.0116 0.38625,-0.57706 0.492972,-1.43123 z m 128.877536,0.79123 c 2.24472,-0.13795 7.34691,-1.20702 10.17009,-2.13097 0.66584,-0.21791 1.61193,-0.81025 2.10242,-1.31631 l 0.8918,-0.92011 h -2.80146 c -2.28288,0 -3.38223,0.15197 -5.93888,0.82096 -3.24154,0.8482 -4.51336,0.8974 -8.66608,0.33522 l -1.29533,-0.17536 0.19043,1.68321 c 0.10474,0.92576 0.24999,1.77957 0.32278,1.89735 0.0728,0.11778 0.68906,0.15574 1.36948,0.0844 0.68042,-0.0714 2.32506,-0.19663 3.65475,-0.27835 z M 58.866794,105.82519 c -2.427659,-1.9326 -4.321082,-3.95444 -6.777231,-7.236862 -2.70097,-3.609607 -4.903027,-5.850361 -5.329863,-5.423525 -0.345639,0.345639 0.490515,3.432838 1.202654,4.440371 0.323133,0.457168 1.263627,1.387828 2.089987,2.068132 2.007158,1.652404 2.608333,2.491484 4.160301,5.806684 0.723397,1.54527 1.577121,3.17732 1.897164,3.62678 l 0.581897,0.8172 1.616712,-1.62814 1.616713,-1.62813 z m 99.638366,-3.11522 c 3.17926,-2.61438 4.63208,-4.521157 5.16253,-6.775649 0.92742,-3.941727 0.25437,-3.975241 -2.00552,-0.09986 -1.66926,2.862548 -2.91945,4.097173 -5.2677,5.202131 -3.90034,1.8353 -4.3352,2.10122 -5.9224,3.62161 l -1.60167,1.53424 1.27042,1.28981 1.27041,1.2898 2.16912,-1.898 c 1.19301,-1.04391 3.40918,-2.91774 4.92481,-4.16408 z m -69.740449,-13.166615 1.5875,-0.47654 -0.08609,-1.305803 C 90.137025,85.802902 89.5171,83.623993 88.323663,80.933664 86.479116,76.775557 86.299307,75.644262 86.9492,72.286035 l 0.176508,-0.912076 -0.575125,0.509063 c -0.316318,0.279984 -0.929808,1.044538 -1.363311,1.699007 -1.077305,1.626434 -1.041755,2.926498 0.1753,6.410717 0.91804,2.62819 0.96484,2.929809 0.992188,6.39444 0.03261,4.130743 -0.129484,3.918464 2.409951,3.156169 z m 34.762309,-4.217337 c 1.61984,-6.600691 1.4701,-9.188628 -0.73075,-12.629143 l -0.84625,-1.322916 0.19627,1.322916 c 0.53931,3.635118 0.0343,6.993631 -1.89466,12.600253 -1.28717,3.741241 -1.28811,3.711831 0.13079,4.093313 2.13193,0.573186 1.94824,0.810619 3.1446,-4.064423 z"
       id="path1"
       clip-path="url(#clipPath30)" /><path
       style="fill:#e1c16c;fill-opacity:1;stroke-width:1.30374"
       d="m 387.63794,842.2157 c -0.48331,-23.52465 -1.15064,-32.8266 -2.68903,-37.48251 l -2.04618,-6.19276 h 3.62398 c 4.37476,0 7.06102,-2.85706 5.95695,-6.3357 -1.0697,-3.37033 -2.64165,-3.86518 -17.46188,-5.4969 -26.16445,-2.88074 -51.22534,-9.0349 -68.67669,-16.86478 -4.77603,-2.14287 -9.81528,-3.89611 -11.19834,-3.89611 -3.30935,0 -9.78677,10.23437 -12.37721,19.55609 -6.19366,22.28792 -7.46891,25.71698 -11.1517,29.98601 -2.4487,2.83849 -3.58984,3.5776 -3.01931,1.95561 0.50443,-1.43411 1.73959,-8.76765 2.74479,-16.29674 2.34686,-17.57827 3.43464,-20.70251 9.67737,-27.79464 7.12761,-8.09738 6.58626,-13.33317 -1.471,-14.22717 -1.73355,-0.19235 -3.73973,-1.46551 -4.45816,-2.82923 -3.39052,-6.43589 -9.2181,-5.87481 -11.7121,1.12764 -1.11359,3.12662 -0.82535,3.95527 2.2206,6.38404 l 3.50031,2.79104 -3.79256,7.82205 c -2.76672,5.70628 -4.19037,11.30948 -5.26325,20.7152 -2.19235,19.21967 -3.05504,19.73724 -5.21006,3.12581 -2.76786,-21.33555 -2.2434,-29.42958 2.574,-39.72413 2.19521,-4.69106 3.99129,-9.10428 3.99129,-9.80713 0,-0.70288 -8.43678,-9.58391 -18.74841,-19.73566 -11.93743,-11.75234 -22.85295,-24.04296 -30.04687,-33.83207 -7.03407,-9.57158 -12.60937,-15.87275 -14.7717,-16.69486 -4.47895,-1.70289 -12.31865,1.16432 -19.35014,7.07692 -8.61697,7.24578 -13.16959,10.00555 -20.88384,12.65965 -10.83916,3.7292 -12.4021,3.14136 -5.04388,-1.89707 3.57571,-2.44843 11.38815,-8.53761 17.36098,-13.53153 8.29289,-6.93376 12.07983,-9.24351 16.02194,-9.77227 2.83924,-0.38082 6.01927,-1.40366 7.06673,-2.27298 5.41578,-4.49469 -1.18807,-11.32042 -9.45244,-9.77001 -7.1323,1.33802 -11.13925,3.76516 -22.2863,13.49946 -12.30306,10.74381 -20.49548,17.17282 -21.88314,17.17282 -0.57526,0 0.89199,-1.99943 3.26056,-4.44318 2.36857,-2.44375 9.08384,-10.80398 14.92282,-18.57829 8.9119,-11.86575 11.71941,-14.67305 17.4871,-17.48578 8.8256,-4.304 9.94051,-5.50353 8.91455,-9.59126 -0.71711,-2.85721 -1.56347,-3.353 -5.70619,-3.34258 -9.24791,0.0233 -17.4504,6.29839 -29.47481,22.54902 -12.91382,17.45264 -21.45834,25.47235 -30.64669,28.7643 -3.73853,1.33942 -7.06147,2.17118 -7.38431,1.84835 -0.32283,-0.32284 2.27717,-2.44287 5.77778,-4.71119 6.76938,-4.38641 15.63214,-14.61049 28.69733,-33.10524 9.14802,-12.94971 13.22423,-16.45455 24.2553,-20.85544 9.55955,-3.81382 9.79631,-4.77325 5.80324,-23.51672 -2.05788,-9.65968 -3.02894,-19.76097 -3.50818,-36.4932 -0.77843,-27.17792 0.66576,-40.97031 6.83213,-65.24866 l 4.34974,-17.1259 -8.22233,-8.7161 c -4.52228,-4.79386 -10.19466,-12.41872 -12.60529,-16.94413 -2.41063,-4.52542 -7.41742,-11.50663 -11.12621,-15.5138 -9.32461,-10.07485 -18.08703,-14.13059 -34.78628,-16.10104 -14.35309,-1.69363 -14.98378,-2.64725 -2.6775,-4.04844 17.78729,-2.02526 30.70965,3.18314 45.57153,18.36778 15.50347,15.84014 22.59215,21.35205 27.46016,21.35205 5.01098,0 7.35396,-2.55628 6.79644,-7.4152 -0.32321,-2.81686 -1.62332,-4.22283 -5.6351,-6.09391 -2.86822,-1.33774 -10.4951,-7.52207 -16.94861,-13.74296 -14.81707,-14.28297 -21.71278,-19.00256 -31.90423,-21.83604 -7.17849,-1.99581 -7.76313,-2.39234 -5.05514,-3.42869 4.3145,-1.65118 18.04962,-0.37678 22.88419,2.12327 2.23265,1.15454 9.61478,7.61858 16.40474,14.36453 13.73571,13.6467 22.79323,19.79568 27.35136,18.56834 1.69899,-0.45747 6.34895,-5.60971 11.15985,-12.36533 4.53601,-6.3696 12.25385,-16.06788 17.15076,-21.55174 8.05436,-9.01975 12.10067,-12.8578 29.82488,-28.28976 2.97053,-2.58635 5.40096,-5.30922 5.40096,-6.0508 0,-0.74159 -2.36125,-4.19897 -5.24724,-7.68306 -8.84904,-10.68297 -10.01985,-14.46393 -11.44889,-36.9726 -0.94743,-14.92279 -1.99257,-22.06302 -3.99614,-27.30082 -3.24599,-8.48578 -2.83793,-9.77989 1.0213,-3.23898 5.43759,9.21602 6.78597,14.38289 7.9183,30.34209 1.27327,17.9458 3.75624,24.94172 12.46196,35.1124 5.25363,6.13767 10.33091,7.26156 14.08165,3.11703 3.12723,-3.45553 2.7544,-4.65816 -3.16743,-10.21731 -8.39446,-7.88033 -10.44613,-13.14265 -11.82658,-30.33394 -0.66605,-8.29452 -1.7755,-16.78946 -2.46545,-18.87765 -0.68995,-2.08818 -1.01019,-4.04095 -0.71164,-4.3395 1.25277,-1.25278 8.04076,12.63193 10.7523,21.99368 1.61119,5.5627 4.08046,12.34729 5.48727,15.07687 3.72057,7.2189 11.72913,16.04466 14.55903,16.04466 1.34431,0 8.77879,-2.58518 16.52109,-5.74484 23.90163,-9.75436 40.32886,-14.18175 61.2375,-16.50442 16.04218,-1.78208 20.68709,-4.92592 14.767,-9.99486 -1.80406,-1.54469 -2.60909,-3.85058 -2.61272,-7.48374 -0.003,-2.88813 -0.92589,-10.82464 -2.05112,-17.63667 -2.39713,-14.512 -1.86458,-20.4061 2.85179,-31.56216 1.9071,-4.51104 5.46409,-12.89536 7.9044,-18.63181 l 4.43695,-10.42992 -0.8328,7.82244 c -0.45803,4.30234 -1.94709,12.9497 -3.30903,19.21635 -3.54598,16.31604 -3.22424,24.39736 1.52201,38.22955 3.27287,9.53829 3.85878,12.92246 3.22956,18.65339 -0.48729,4.43828 -0.22209,7.65969 0.72447,8.80024 2.00067,2.41065 7.02507,2.28041 9.55311,-0.24763 3.7355,-3.7355 3.93026,-8.58493 0.80789,-20.1168 -7.73772,-28.57784 -7.37858,-25.04957 -4.17366,-41.00244 1.59184,-7.92357 3.2791,-17.63324 3.74948,-21.57705 0.84259,-7.06465 0.87022,-7.10317 1.87012,-2.60748 0.55818,2.5097 1.38131,13.06998 1.82917,23.46731 0.59018,13.7015 1.6784,22.18195 3.95408,30.81393 1.88241,7.14027 3.13979,15.56054 3.13979,21.02613 0,5.74374 0.60292,9.58828 1.62968,10.39187 0.89632,0.70149 10.13657,3.18353 20.53389,5.51563 10.39732,2.33211 25.29313,6.51757 33.1018,9.30104 l 14.19758,5.06085 4.98872,-4.50701 c 2.7438,-2.47885 10.48285,-8.56473 17.19788,-13.52416 6.71503,-4.95944 14.00641,-11.19757 16.20308,-13.86251 4.53342,-5.49981 7.74612,-14.7375 9.01116,-25.91037 1.21389,-10.72102 3.28609,-6.33347 3.28609,6.95774 0,17.22948 -4.73754,25.03314 -22.36942,36.84682 -16.73876,11.21527 -21.23875,17.03643 -16.68786,21.58731 2.74812,2.74813 6.35526,1.70043 12.36816,-3.59233 3.22215,-2.83625 8.88566,-6.88288 12.58558,-8.9925 7.26947,-4.14492 12.98282,-9.64543 18.33118,-17.64829 4.53212,-6.78152 4.30188,-3.81246 -0.4214,5.43406 -2.39366,4.68595 -7.96808,11.56884 -14.993,18.51233 -7.60561,7.51744 -11.18266,12.01362 -11.18266,14.05612 0,3.46129 2.58343,4.84094 6.99256,3.73433 4.17221,-1.04717 20.87946,-16.70355 26.51299,-24.84536 3.98547,-5.75997 4.45697,-6.10489 3.68323,-2.69435 -1.25349,5.52523 -5.29855,11.67095 -14.00533,21.27853 -4.14622,4.57519 -7.53857,8.99911 -7.53857,9.83093 0,0.83183 9.24025,10.8985 20.53389,22.37039 11.74774,11.93314 24.15994,26.0144 29.00821,32.90895 12.86063,18.28861 15.42811,18.0794 35.84811,-2.921 13.76955,-14.16092 14.64732,-14.81514 21.85026,-16.28535 10.61175,-2.16601 13.40132,-1.25661 6.76862,2.20654 -7.00388,3.65697 -17.07357,12.82865 -24.13776,21.98514 -3.39872,4.40537 -9.44504,9.88017 -14.86795,13.46257 -5.02685,3.32078 -9.34043,7.07992 -9.58573,8.35365 -0.66531,3.45466 2.19751,6.10181 6.59892,6.10181 5.50703,0 13.73991,-6.4876 28.73317,-22.64204 12.87333,-13.87035 22.12705,-20.17265 32.88355,-22.3955 3.45166,-0.7133 3.22622,-0.40227 -1.91879,2.64718 -10.44533,6.19094 -19.34577,14.90679 -29.04827,28.44581 -8.30371,11.58717 -10.51082,13.7945 -17.2021,17.2039 -8.84596,4.50726 -11.21999,7.34276 -9.00537,10.75585 2.09583,3.22999 9.62949,2.47944 17.36333,-1.72984 4.63223,-2.52119 8.59599,-6.53646 15.14957,-15.34648 4.88174,-6.56254 10.96097,-14.20632 13.50942,-16.9862 4.57878,-4.9946 15.08033,-12.54617 17.44726,-12.54617 0.67182,0 -3.13884,4.56391 -8.46813,10.14201 -5.32929,5.5781 -12.75669,15.2197 -16.50533,21.42576 -8.1753,13.53462 -12.19282,17.16446 -21.33534,19.27648 -8.92036,2.06069 -12.7877,4.54332 -12.7877,8.20904 0,1.61281 1.5202,9.95951 3.37821,18.54823 2.75643,12.74164 3.49813,20.29512 4.02972,41.03877 0.7366,28.74382 -0.70941,41.89515 -7.56189,68.77491 -3.21025,12.59261 -3.74291,16.37014 -2.5167,17.84764 0.85549,1.03081 5.17979,3.58006 9.60956,5.66503 4.42975,2.08496 14.50762,8.96276 22.39524,15.28398 17.35605,13.90932 23.33776,16.75421 41.03242,19.51493 7.50966,1.17166 13.84287,2.31925 14.07383,2.55021 1.33901,1.33901 -20.11558,1.94556 -28.11281,0.79479 -11.29193,-1.62487 -15.21235,-3.50543 -31.55653,-15.13718 -17.02169,-12.1139 -25.47139,-16.43058 -31.2171,-15.94777 -4.1852,0.35167 -4.67556,0.80296 -5.04554,4.64358 -0.39474,4.09793 -0.0897,4.3977 8.31267,8.16757 4.79736,2.15242 14.3687,8.07656 21.26964,13.16473 15.07279,11.11341 25.43654,16.54551 33.74972,17.68972 l 6.17597,0.85004 -3.91122,1.67139 c -5.35662,2.28906 -17.23916,2.19914 -24.21287,-0.18324 -3.17523,-1.08472 -10.17326,-5.49642 -15.55118,-9.80377 -11.50653,-9.21595 -21.34917,-14.38033 -29.06433,-15.24994 l -5.55904,-0.62659 -10.26283,14.80408 c -7.29789,10.52715 -16.02279,20.55973 -30.20024,34.72668 l -19.9374,19.9226 1.76078,5.85064 c 2.70258,8.97998 8.73785,17.27808 20.07629,27.60364 6.05635,5.5153 11.47554,11.76206 13.08109,15.07868 4.79955,9.91454 3.25514,10.43406 -5.40723,1.81895 -4.48161,-4.45716 -12.1921,-11.57956 -17.13444,-15.82758 -6.81676,-5.85911 -9.7415,-9.47342 -12.11535,-14.97181 -5.74304,-13.30224 -6.0875,-13.76685 -10.20692,-13.76685 -2.97456,0 -4.103,0.77672 -5.05301,3.47807 -1.01123,2.87543 -0.31252,5.37595 4.03243,14.43106 4.67274,9.73828 6.61226,12.15763 17.48852,21.81525 13.58947,12.06682 20.14457,19.46008 22.82781,25.74665 3.13577,7.34679 1.96479,7.28718 -4.92437,-0.25065 -3.69325,-4.041 -13.41094,-12.37659 -21.59488,-18.52353 -14.15372,-10.63083 -22.06798,-19.03951 -26.86135,-28.53945 -3.79494,-7.5212 -4.78179,-7.68271 -16.7566,-2.74242 -15.31762,6.31938 -37.61055,13.29067 -50.62368,15.83068 -15.18388,2.96373 -19.3593,4.41091 -20.86984,7.23335 -1.81881,3.39847 -1.60012,14.32947 0.55191,27.5866 1.15398,7.1089 1.43995,13.06331 0.77004,16.03362 -0.96015,4.25716 -14.13195,26.11123 -15.13382,25.10936 -0.22759,-0.22759 1.05431,-5.03693 2.84867,-10.68743 4.51365,-14.21354 4.94197,-19.21954 2.73676,-31.98606 -1.26855,-7.34391 -1.57601,-13.50041 -0.91156,-18.25235 1.1624,-8.31304 0.0625,-10.42992 -5.41928,-10.42992 -7.35219,0 -9.39687,11.69933 -5.59273,32.00073 l 2.00353,10.69221 -4.17846,12.8767 c -2.29815,7.08217 -4.86568,16.69012 -5.70562,21.35099 -1.41319,7.84193 -1.57512,6.13936 -2.16999,-22.81544 z m 36.07739,-64.66721 c 36.50666,-4.44446 73.83075,-19.52889 103.11279,-41.67272 41.27646,-31.21432 68.67829,-75.31356 80.24462,-129.142 3.89356,-18.12021 4.19208,-58.68687 0.57928,-78.71928 C 595.32919,459.68665 553.59787,403.73152 491.8131,372.69276 477.37309,365.43855 450.53844,356.4704 433.49337,353.2023 c -18.64162,-3.57422 -58.08491,-3.27548 -77.90547,0.59005 -76.27978,14.87656 -141.81351,71.6474 -164.99481,142.93239 -9.29492,28.5829 -11.65954,49.65554 -9.80184,87.35054 2.11744,42.96551 20.07316,85.97813 50.88728,121.89964 32.19473,37.53096 78.93685,62.93688 130.76104,71.07304 13.28791,2.08613 46.05324,2.35378 61.27576,0.50053 z"
       id="path3"
       transform="scale(0.26458333)"
       clip-path="url(#clipPath29)" /><path
       style="fill:#e1c16c;fill-opacity:1;stroke-width:1.30374"
       d="m 101.71244,604.39344 c -2.25954,-0.8825 -2.012184,-1.19501 1.95561,-2.47069 2.49828,-0.80322 8.16414,-2.02757 12.5908,-2.72077 5.09101,-0.79724 11.55843,-3.17269 17.60048,-6.46457 9.53033,-5.19238 24.07266,-10.22093 25.48219,-8.81141 0.4091,0.4091 1.02692,3.69014 1.37293,7.29119 l 0.62912,6.54736 h -10.50685 c -8.44783,0 -12.58565,0.76648 -21.11464,3.91122 -10.65532,3.92874 -22.0725,5.0365 -28.00964,2.71767 z"
       id="path4"
       transform="scale(0.26458333)"
       clip-path="url(#clipPath28)" /><path
       style="fill:#e1c16c;fill-opacity:1;stroke-width:1.30374"
       d="m 152.53752,539.00924 c -5.27207,-1.875 -11.00657,-2.33896 -29.98601,-2.42608 -22.05983,-0.10127 -23.763453,-0.287 -28.404977,-3.09684 l -4.937666,-2.98912 12.108233,0.50432 c 11.10145,0.46239 13.02967,0.15789 23.19002,-3.6622 14.07452,-5.29174 21.99606,-5.61314 29.98601,-1.21662 4.82361,2.65422 5.9391,3.97379 6.27327,7.42095 0.69622,7.1819 -0.73329,8.13137 -8.22888,5.46559 z"
       id="path5"
       transform="scale(0.26458333)"
       clip-path="url(#clipPath27)" /><path
       style="fill:#e1c16c;fill-opacity:1;stroke-width:1.30374"
       d="m 205.8248,398.78172 c -6.46563,-12.79848 -8.91913,-16.27748 -15.77548,-22.36921 -7.68581,-6.8287 -9.85957,-10.38517 -12.79234,-20.92947 -1.61784,-5.81664 3.83893,-0.86031 17.30637,15.71921 7.15192,8.8046 16.97482,19.72286 21.82865,24.26278 l 8.82516,8.25441 -4.98873,5.10892 c -2.7438,2.80991 -5.38439,5.10892 -5.86798,5.10892 -0.48359,0 -4.32464,-6.82 -8.53565,-15.15556 z"
       id="path6"
       transform="scale(0.26458333)"
       clip-path="url(#clipPath26)" /><path
       style="fill:#e1c16c;fill-opacity:1;stroke-width:1.30374"
       d="m 327.4052,336.67821 c -0.43057,-1.6065 -0.79087,-7.73869 -0.80066,-13.62709 -0.0129,-7.77597 -0.90531,-13.48517 -3.26051,-20.85983 -1.78349,-5.58451 -3.25019,-12.0895 -3.25935,-14.45555 -0.0179,-4.63773 2.53181,-10.54457 5.67922,-13.15669 1.71071,-1.41976 1.86656,-0.75169 1.24026,5.31655 -0.80578,7.80723 -0.17865,10.41934 7.14073,29.74252 2.85193,7.5291 5.58087,16.47682 6.06431,19.88383 0.95114,6.70308 0.66395,7.01242 -8.58465,9.24691 -2.81856,0.68097 -3.57727,0.30503 -4.21935,-2.09065 z"
       id="path7"
       transform="scale(0.26458333)"
       clip-path="url(#clipPath25)" /><path
       style="fill:#e1c16c;fill-opacity:1;stroke-width:1.30374"
       d="m 454.67914,336.97603 c -1.61338,-0.6485 -2.93341,-1.87558 -2.93341,-2.72683 0,-0.85126 2.03992,-7.85786 4.53316,-15.57022 5.41479,-16.7496 7.76508,-30.61479 6.58666,-38.857 -0.82576,-5.77568 -0.77299,-5.91186 1.22061,-3.14958 6.6095,9.15795 7.41496,21.67274 2.7254,42.34539 -4.42272,19.49639 -5.25198,20.72384 -12.13242,17.95824 z"
       id="path8"
       transform="scale(0.26458333)"
       clip-path="url(#clipPath24)" /><path
       style="fill:#e1c16c;fill-opacity:1;stroke-width:1.30374"
       d="m 567.97762,405.66837 -4.21045,-4.34408 5.82172,-5.36627 c 3.20194,-2.95145 10.99802,-7.98095 17.32462,-11.17668 12.39989,-6.2635 18.29945,-11.61087 25.56897,-23.17577 5.77259,-9.18348 7.68033,-10.55994 6.61343,-4.7717 -2.34779,12.73743 -7.07218,18.91323 -28.50193,37.25821 -7.17057,6.13838 -14.24531,12.23162 -15.72166,13.54053 -2.62571,2.32793 -2.77609,2.28509 -6.8947,-1.96424 z"
       id="path9"
       transform="scale(0.26458333)"
       clip-path="url(#clipPath23)" /><path
       style="fill:#e1c16c;fill-opacity:1;stroke-width:1.30374"
       d="m 629.89143,538.45707 c -0.46043,-1.19985 -0.83713,-4.07266 -0.83713,-6.38404 v -4.20251 l 9.93769,1.22216 c 7.99398,0.98311 12.1377,0.77274 21.18576,-1.0756 18.73584,-3.82734 22.68475,-4.40897 30.1523,-4.44108 l 7.17057,-0.0308 -3.91122,3.23344 c -6.24673,5.16422 -30.46085,11.17706 -52.29025,12.98468 -9.18467,0.76055 -10.68035,0.58929 -11.40772,-1.30622 z"
       id="path10"
       transform="scale(0.26458333)"
       clip-path="url(#clipPath22)" /><path
       style="fill:#e1c16c;fill-opacity:1;stroke-width:1.30374"
       d="m 629.57339,599.84427 c -0.38655,-1.00733 -0.51481,-3.73701 -0.28502,-6.06596 l 0.41779,-4.23447 20.16709,0.28694 c 27.49583,0.39122 36.0787,2.23883 42.29162,9.10403 3.00412,3.31952 1.96178,3.4074 -9.00539,0.75927 -9.9296,-2.3976 -19.11004,-2.38571 -33.89722,0.0439 -14.65176,2.40734 -18.7973,2.42972 -19.68887,0.10631 z"
       id="path11"
       transform="scale(0.26458333)"
       clip-path="url(#clipPath21)" /><path
       style="fill:#e1c16c;fill-opacity:1;stroke-width:1.30374"
       d="m 609.40638,757.79857 c -6.56315,-10.50849 -10.07221,-13.7201 -22.07175,-20.20083 -12.4077,-6.70116 -18.26943,-10.50754 -18.21728,-11.82957 0.0193,-0.48896 1.67647,-2.86793 3.68262,-5.28659 l 3.64755,-4.39757 11.63632,8.85002 c 14.16246,10.77129 21.08527,17.14335 23.31134,21.45682 1.67543,3.24648 4.05619,18.25235 2.89583,18.25235 -0.33537,0 -2.53346,-3.08008 -4.88463,-6.84463 z"
       id="path12"
       transform="scale(0.26458333)"
       clip-path="url(#clipPath20)" /><path
       style="fill:#e1c16c;fill-opacity:1;stroke-width:1.30374"
       d="m 468.21567,845.47505 c 2.45276,-9.89984 1.28495,-18.30478 -4.34751,-31.28975 -2.95484,-6.81204 -5.78131,-14.57597 -6.28104,-17.25318 -0.8374,-4.48619 -0.62374,-4.97595 2.72649,-6.24971 8.43601,-3.20736 8.74745,-2.93379 10.42978,9.16176 0.84774,6.09498 2.49355,14.68656 3.65736,19.09241 3.44752,13.05124 2.48604,18.69914 -4.73975,27.84221 l -2.57587,3.25935 z"
       id="path13"
       transform="scale(0.26458333)"
       clip-path="url(#clipPath19)" /><path
       style="fill:#e1c16c;fill-opacity:1;stroke-width:1.30374"
       d="m 327.47639,847.22588 c -5.84506,-11.34204 -7.68794,-29.60168 -4.71221,-46.68956 1.93941,-11.13694 2.4672,-11.77159 8.21258,-9.87545 2.58491,0.8531 4.9918,2.02349 5.34864,2.60087 0.35684,0.57739 -0.81666,5.94588 -2.60779,11.92999 -4.65799,15.56226 -5.74103,23.97879 -4.51724,35.10433 0.58938,5.35814 0.87237,9.94327 0.62886,10.18917 -0.24351,0.2459 -1.30229,-1.22081 -2.35284,-3.25935 z"
       id="path14"
       transform="scale(0.26458333)"
       clip-path="url(#clipPath18)" /><path
       style="fill:#efdb8e;fill-opacity:1;stroke-width:1.30374"
       d="m 175.2663,762.36166 c 5.34134,-10.36777 6.66566,-12.16911 22.72403,-30.90909 l 14.16306,-16.52817 3.2312,3.02176 c 6.32168,5.91194 6.15349,6.67501 -2.94349,13.35448 -4.62847,3.39845 -13.25338,11.53901 -19.16648,18.09012 -15.49724,17.16936 -18.78724,20.4674 -20.41753,20.4674 -0.79909,0 0.28506,-3.37343 2.40921,-7.4965 z"
       id="path15"
       transform="scale(0.26458333)"
       clip-path="url(#clipPath17)" /><path
       style="fill:#efdb8e;fill-opacity:1;stroke-width:1.30374"
       d="M 372.21762,767.20634 C 279.90507,755.8859 208.61571,689.16039 193.40181,599.83805 c -2.29198,-13.45648 -2.58648,-19.38707 -2.01279,-40.53382 0.90366,-33.31014 4.87347,-50.63692 18.04862,-78.77578 27.29201,-58.28893 79.84942,-100.16545 144.3049,-114.97878 14.32147,-3.29139 47.94236,-4.64673 66.06157,-2.66309 45.07188,4.93433 88.41454,26.36069 121.89964,60.26087 26.82482,27.15732 44.38195,59.71881 53.73232,99.65204 3.93139,16.79003 4.81977,56.54675 1.68279,75.30733 -14.36835,85.92892 -78.50627,151.06668 -164.00948,166.5662 -16.82754,3.05039 -46.58111,4.28826 -60.89176,2.53332 z m 57.98579,-103.45072 c 16.77508,-4.3995 36.87094,-14.26135 49.48166,-24.28262 11.71338,-9.30819 14.03928,-13.04972 10.52577,-16.93211 -1.30049,-1.43702 -3.36511,-2.61277 -4.58804,-2.61277 -1.22294,0 -6.55883,3.5558 -11.85754,7.90178 -23.5662,19.32892 -48.1941,28.03671 -78.7322,27.83767 -31.25028,-0.20369 -54.40002,-8.97921 -78.7371,-29.8474 -8.56877,-7.34743 -13.58102,-7.77565 -14.22113,-1.21499 -0.34033,3.4881 0.75178,5.09582 8.18484,12.04908 15.15016,14.17222 37.91074,25.29038 60.51647,29.56125 15.61051,2.94927 43.14877,1.80937 59.42727,-2.45989 z m -10.03753,-61.50191 c 3.87542,-2.71445 3.73058,-7.77778 -0.49098,-17.16345 -6.92801,-15.40278 -8.55456,-21.64448 -9.26778,-35.56407 -0.38876,-7.58749 -0.0504,-17.85877 0.75914,-23.04351 1.75399,-11.23351 1.07291,-13.74674 -3.57866,-13.2058 -11.7032,1.36103 -12.52691,44.02047 -1.32694,68.72147 2.11285,4.65978 3.54948,9.23343 3.19251,10.16365 -0.69661,1.81537 -16.70785,2.36235 -25.68619,0.87751 l -4.74739,-0.78511 4.94008,-9.65983 c 7.37692,-14.4248 9.73244,-25.40314 9.75261,-45.45391 0.0202,-20.08464 -0.76168,-23.77412 -5.27849,-24.90777 -1.81512,-0.45557 -3.68291,-0.44559 -4.15065,0.0222 -0.46775,0.46774 -1.25782,10.95183 -1.75572,23.29795 -0.97878,24.27014 -2.14408,29.11152 -11.43885,47.52439 -4.59829,9.10914 -5.16668,14.64527 -1.80436,17.57432 3.70043,3.22362 5.21473,3.42087 27.08843,3.52861 16.92316,0.0834 21.44654,-0.28291 23.79324,-1.9266 z m -94.74974,-77.87217 c 8.45673,-5.69084 9.57783,-18.39712 2.26816,-25.70679 -7.17719,-7.17719 -19.11717,-6.83282 -25.76902,0.74323 -3.35338,3.81929 -4.01081,5.65426 -4.01081,11.19477 0,5.95938 0.50972,7.13643 5.06158,11.68829 4.52164,4.52165 5.75274,5.06158 11.54085,5.06158 4.58919,0 7.77155,-0.86962 10.90924,-2.98108 z m 162.03265,0.25848 c 4.77421,-3.7554 7.32034,-9.18772 7.32034,-15.6184 0,-4.57282 -0.80142,-6.23451 -5.06157,-10.49466 -4.49556,-4.49555 -5.77125,-5.06102 -11.40772,-5.05669 -10.59895,0.008 -18.73168,7.40238 -18.73168,17.03076 0,4.69362 4.14535,11.82699 8.36996,14.40315 5.55711,3.38872 15.02983,3.26047 19.51067,-0.26416 z M 290.10022,498.01006 c 8.99261,-9.10572 18.14614,-12.91842 28.77861,-11.98709 9.41169,0.8244 14.45269,3.52668 22.68012,12.15792 3.67938,3.85998 7.61085,7.01816 8.73655,7.01816 3.2402,0 5.17844,-3.29265 4.20988,-7.15168 -1.26434,-5.03752 -12.27511,-15.48666 -20.62267,-19.57073 -6.58918,-3.22379 -8.22898,-3.47476 -20.00465,-3.06169 -11.95698,0.41943 -13.3425,0.7595 -20.42474,5.01305 -9.44941,5.67525 -16.40868,14.32539 -16.40868,20.39543 0,6.84298 4.47059,5.8796 13.05558,-2.81337 z m 162.48858,0.14117 c 8.32501,-8.84414 13.20104,-11.3763 23.49836,-12.20287 7.02659,-0.56403 9.16906,-0.16274 15.39558,2.88361 4.32589,2.11646 9.45301,6.11659 12.75624,9.95231 7.72252,8.96738 14.4819,8.50197 12.13828,-0.83577 -1.25262,-4.99086 -10.8559,-14.7023 -18.29644,-18.50252 -7.98537,-4.07848 -23.56515,-5.47164 -32.67287,-2.92164 -12.46808,3.49084 -25.39588,15.42201 -25.39588,23.43806 0,7.64061 4.25676,7.0276 12.57673,-1.81118 z"
       id="path16"
       transform="scale(0.26458333)"
       clip-path="url(#clipPath16)" /></g></svg>
